<svg id="clouds" xmlns="http://www.w3.org/2000/svg" xmlns:xlink="http://www.w3.org/1999/xlink" width="928px" height="172.585938px" viewBox="0 0 928 172.585938" version="1.1">
  <title>Clouds</title>
  <description>Created by the amazing Mel Shields.</description>
  <g stroke="#2A2B57">
    <rect id="sky" stroke-width="0" fill="#A2E4E3" x="0" y="0" width="928" height="172.585938"/>
    <path d="M139.208305,79.9982407 L139.208305,79.9982407 M49,70.6855777 C49,63.9201962 54.4844253,58.4357709 61.2498068,58.4357709 C61.8083807,58.4357709 62.3582227,58.4731568 62.896967,58.5455629 C65.5820963,52.3716651 71.7358101,48.0545788 78.8978334,48.0545788 C88.5299019,48.0545788 96.3382363,55.8629131 96.3382363,65.4949816 C97.1897661,65.2252495 98.0965627,65.0797339 99.0373462,65.0797339 C102.711872,65.0797339 105.867914,67.2996307 107.237521,70.4714743 L136.185922,70.4714743 L49,70.6855777 Z" id="Oval-5" fill="#E9FFFF">
    <path d="M887.208305,42.9982407 L887.208305,42.9982407 M797,33.6855777 C797,26.9201962 802.484425,21.4357709 809.249807,21.4357709 C809.808381,21.4357709 810.358223,21.4731568 810.896967,21.5455629 C813.582096,15.3716651 819.73581,11.0545788 826.897833,11.0545788 C836.529902,11.0545788 844.338236,18.8629131 844.338236,28.4949816 C845.189766,28.2252495 846.096563,28.0797339 847.037346,28.0797339 C850.711872,28.0797339 853.867914,30.2996307 855.237521,33.4714743 L885.018697,33.4714743 L797,33.6855777 Z" id="Oval-8" fill="#E9FFFF">
    <path d="M352.703167,64.050522 L352.703167,64.050522 M324.9375,62 C324.9375,49.3994141 336.734375,46 341.5,46 C342.716717,46 343.892831,46.173838 345.004862,46.4980318 C345.001626,46.3324109 345,46.1663953 345,46 C345,32.1928813 356.192881,21 370,21 C378.772551,21 386.489767,25.5184306 390.951319,32.3549648 C393.802946,30.8512156 397.052067,30 400.5,30 C411.821837,30 421,39.1781626 421,50.5 C421,51.4384329 420.936944,52.3621381 420.814837,53.26711 C421.514416,53.0926244 422.246391,53 423,53 C427.970563,53 432,57.0294373 432,62 L501.389006,62 L324.9375,62 Z" id="Oval-5" fill="#E9FFFF">
  </g>
</svg>
