<svg id="water" xmlns="http://www.w3.org/2000/svg" xmlns:xlink="http://www.w3.org/1999/xlink" xmlns:sketch="http://www.bohemiancoding.com/sketch/ns" width="928px" height="417px" viewBox="0 0 928 417" version="1.1">
  <title>Water</title>
  <description>Created by the amazing Mel Shields.</description>
  <g>
    <rect fill="#127F86" x="1" y="-0.4140625" width="928" height="417"/>
    <rect fill="#222222" x="1" y="-0.4140625" width="928" height="3"/>
    <path d="M243.5,6.5 L487.5,6.5" id="Line" stroke="#01495F" fill-opacity="0" fill="#D8D8D8" sketch:type="MSShapeGroup"/>
    <path d="M1.5,44.5 L187.524185,44.5" id="Line-39" stroke="#01495F" fill-opacity="0" fill="#D8D8D8" sketch:type="MSShapeGroup"/>
    <path d="M441.5,39.5 L473.453091,39.5" id="Line-47" stroke="#01495F" fill-opacity="0" fill="#D8D8D8" sketch:type="MSShapeGroup"/>
    <path d="M180.963267,14.5 L450.453091,14.5" id="Line-61" stroke="#01495F" fill-opacity="0" fill="#D8D8D8" sketch:type="MSShapeGroup"/>
    <path d="M529.470787,211.5 L683.524185,211.5" id="Line-127" stroke="#01495F" fill-opacity="0" fill="#D8D8D8" sketch:type="MSShapeGroup"/>
    <path d="M1.5,100.5 L134.523499,100.5" id="Line-48" stroke="#01495F" fill-opacity="0" fill="#D8D8D8" sketch:type="MSShapeGroup"/>
    <path d="M53.5,53.5 L239.524185,53.5" id="Line-40" stroke="#01495F" fill-opacity="0" fill="#D8D8D8" sketch:type="MSShapeGroup"/>
    <path d="M394.5,53.5 L546.5,53.5" id="Line-41" stroke="#01495F" fill-opacity="0" fill="#D8D8D8" sketch:type="MSShapeGroup"/>
    <path d="M394.5,92.5 L610.502319,92.5" id="Line-50" stroke="#01495F" fill-opacity="0" fill="#D8D8D8" sketch:type="MSShapeGroup"/>
    <path d="M507.5,136.5 L693.524185,136.5" id="Line-69" stroke="#01495F" fill-opacity="0" fill="#D8D8D8" sketch:type="MSShapeGroup"/>
    <path d="M497.5,192.5 L683.524185,192.5" id="Line-73" stroke="#01495F" fill-opacity="0" fill="#D8D8D8" sketch:type="MSShapeGroup"/>
    <path d="M573.483611,316.5 L695.524185,316.5" id="Line-135" stroke="#01495F" fill-opacity="0" fill="#D8D8D8" sketch:type="MSShapeGroup"/>
    <path d="M53.5,69.5 L217.5,69.5" id="Line-42" stroke="#01495F" fill-opacity="0" fill="#D8D8D8" sketch:type="MSShapeGroup"/>
    <path d="M0.5,77.5 L186.524185,77.5" id="Line-44" stroke="#01495F" fill-opacity="0" fill="#D8D8D8" sketch:type="MSShapeGroup"/>
    <path d="M90.4966673,93.5 L240.524185,93.5" id="Line-46" stroke="#01495F" fill-opacity="0" fill="#D8D8D8" sketch:type="MSShapeGroup"/>
    <path d="M34.4966673,108.5 L184.524185,108.5" id="Line-49" stroke="#01495F" fill-opacity="0" fill="#D8D8D8" sketch:type="MSShapeGroup"/>
    <path d="M296.5,61.5 L439.5,61.5" id="Line-52" stroke="#01495F" fill-opacity="0" fill="#D8D8D8" sketch:type="MSShapeGroup"/>
    <path d="M259.5,69.5 L402.5,69.5" id="Line-53" stroke="#01495F" fill-opacity="0" fill="#D8D8D8" sketch:type="MSShapeGroup"/>
    <path d="M245.5,108.5 L388.5,108.5" id="Line-55" stroke="#01495F" fill-opacity="0" fill="#D8D8D8" sketch:type="MSShapeGroup"/>
    <path d="M1.5,124.5 L69.5,124.5" id="Line-51" stroke="#01495F" fill-opacity="0" fill="#D8D8D8" sketch:type="MSShapeGroup"/>
    <path d="M14.5,85.5 L82.5,85.5" id="Line-45" stroke="#01495F" fill-opacity="0" fill="#D8D8D8" sketch:type="MSShapeGroup"/>
    <path d="M201.5,61.5 L269.5,61.5" id="Line-43" stroke="#01495F" fill-opacity="0" fill="#D8D8D8" sketch:type="MSShapeGroup"/>
    <path d="M296.5,92.5 L364.5,92.5" id="Line-56" stroke="#01495F" fill-opacity="0" fill="#D8D8D8" sketch:type="MSShapeGroup"/>
    <path d="M307.5,131.5 L400.5,131.5" id="Line-66" stroke="#01495F" fill-opacity="0" fill="#D8D8D8" sketch:type="MSShapeGroup"/>
    <path d="M369.5,76.5 L437.5,76.5" id="Line-60" stroke="#01495F" fill-opacity="0" fill="#D8D8D8" sketch:type="MSShapeGroup"/>
    <path d="M496.5,153.5 L564.5,153.5" id="Line-71" stroke="#01495F" fill-opacity="0" fill="#D8D8D8" sketch:type="MSShapeGroup"/>
    <path d="M82.2500854,32.5 L265.524551,32.5" id="Line-63" stroke="#01495F" fill-opacity="0" fill="#D8D8D8" sketch:type="MSShapeGroup"/>
    <path d="M1.25008535,20.5 L184.524551,20.5" id="Line-183" stroke="#01495F" fill-opacity="0" fill="#D8D8D8" sketch:type="MSShapeGroup"/>
    <path d="M516.5,162.5 L584.5,162.5" id="Line-72" stroke="#01495F" fill-opacity="0" fill="#D8D8D8" sketch:type="MSShapeGroup"/>
    <path d="M585.5,185.5 L653.5,185.5" id="Line-74" stroke="#01495F" fill-opacity="0" fill="#D8D8D8" sketch:type="MSShapeGroup"/>
    <path d="M625.5,218.5 L693.5,218.5" id="Line-131" stroke="#01495F" fill-opacity="0" fill="#D8D8D8" sketch:type="MSShapeGroup"/>
    <path d="M626.5,354.5 L694.5,354.5" id="Line-137" stroke="#01495F" fill-opacity="0" fill="#D8D8D8" sketch:type="MSShapeGroup"/>
    <path d="M466.5,65.5 L647.544189,65.5" id="Line-62" stroke="#01495F" fill-opacity="0" fill="#D8D8D8" sketch:type="MSShapeGroup"/>
    <path d="M538.5,144.5 L606.5,144.5" id="Line-70" stroke="#01495F" fill-opacity="0" fill="#D8D8D8" sketch:type="MSShapeGroup"/>
    <path d="M497.5,254.5 L565.5,254.5" id="Line-130" stroke="#01495F" fill-opacity="0" fill="#D8D8D8" sketch:type="MSShapeGroup"/>
    <path d="M517.5,263.5 L585.5,263.5" id="Line-129" stroke="#01495F" fill-opacity="0" fill="#D8D8D8" sketch:type="MSShapeGroup"/>
    <path d="M539.5,245.5 L607.5,245.5" id="Line-128" stroke="#01495F" fill-opacity="0" fill="#D8D8D8" sketch:type="MSShapeGroup"/>
    <path d="M581.5,283.5 L649.5,283.5" id="Line-134" stroke="#01495F" fill-opacity="0" fill="#D8D8D8" sketch:type="MSShapeGroup"/>
    <path d="M580.5,324.5 L648.5,324.5" id="Line-136" stroke="#01495F" fill-opacity="0" fill="#D8D8D8" sketch:type="MSShapeGroup"/>
    <path d="M574.5,359.5 L599.519993,359.5" id="Line-138" stroke="#01495F" fill-opacity="0" fill="#D8D8D8" sketch:type="MSShapeGroup"/>
    <path d="M602.5,332.5 L668.568146,332.5" id="Line-139" stroke="#01495F" fill-opacity="0" fill="#D8D8D8" sketch:type="MSShapeGroup"/>
    <path d="M626.5,153.5 L694.5,153.5" id="Line-133" stroke="#01495F" fill-opacity="0" fill="#D8D8D8" sketch:type="MSShapeGroup"/>
    <path d="M599.5,274.5 L693.5,274.5" id="Line-132" stroke="#01495F" fill-opacity="0" fill="#D8D8D8" sketch:type="MSShapeGroup"/>
    <path d="M107.470787,196.5 L261.524185,196.5" id="Line-190" stroke="#01495F" fill-opacity="0" fill="#D8D8D8" sketch:type="MSShapeGroup"/>
    <path d="M85.5,121.5 L213.503906,121.5" id="Line-189" stroke="#01495F" fill-opacity="0" fill="#D8D8D8" sketch:type="MSShapeGroup"/>
    <path d="M75.5,177.5 L261.524185,177.5" id="Line-188" stroke="#01495F" fill-opacity="0" fill="#D8D8D8" sketch:type="MSShapeGroup"/>
    <path d="M151.483611,301.5 L273.524185,301.5" id="Line-187" stroke="#01495F" fill-opacity="0" fill="#D8D8D8" sketch:type="MSShapeGroup"/>
    <path d="M74.5,138.5 L142.5,138.5" id="Line-186" stroke="#01495F" fill-opacity="0" fill="#D8D8D8" sketch:type="MSShapeGroup"/>
    <path d="M94.5,147.5 L162.5,147.5" id="Line-185" stroke="#01495F" fill-opacity="0" fill="#D8D8D8" sketch:type="MSShapeGroup"/>
    <path d="M163.5,170.5 L231.5,170.5" id="Line-184" stroke="#01495F" fill-opacity="0" fill="#D8D8D8" sketch:type="MSShapeGroup"/>
    <path d="M204.5,339.5 L272.5,339.5" id="Line-182" stroke="#01495F" fill-opacity="0" fill="#D8D8D8" sketch:type="MSShapeGroup"/>
    <path d="M116.5,129.5 L184.5,129.5" id="Line-181" stroke="#01495F" fill-opacity="0" fill="#D8D8D8" sketch:type="MSShapeGroup"/>
    <path d="M265.5,153.5 L451.524185,153.5" id="Line-199" stroke="#01495F" fill-opacity="0" fill="#D8D8D8" sketch:type="MSShapeGroup"/>
    <path d="M265.5,209.5 L398.523499,209.5" id="Line-198" stroke="#01495F" fill-opacity="0" fill="#D8D8D8" sketch:type="MSShapeGroup"/>
    <path d="M317.5,178.5 L481.5,178.5" id="Line-196" stroke="#01495F" fill-opacity="0" fill="#D8D8D8" sketch:type="MSShapeGroup"/>
    <path d="M354.496667,202.5 L475.5,202.5" id="Line-68" stroke="#01495F" fill-opacity="0" fill="#D8D8D8" sketch:type="MSShapeGroup"/>
    <path d="M298.496667,217.5 L448.524185,217.5" id="Line-65" stroke="#01495F" fill-opacity="0" fill="#D8D8D8" sketch:type="MSShapeGroup"/>
    <path d="M265.5,233.5 L333.5,233.5" id="Line-64" stroke="#01495F" fill-opacity="0" fill="#D8D8D8" sketch:type="MSShapeGroup"/>
    <path d="M278.5,194.5 L346.5,194.5" id="Line-54" stroke="#01495F" fill-opacity="0" fill="#D8D8D8" sketch:type="MSShapeGroup"/>
    <path d="M661.470787,161.5 L815.524185,161.5" id="Line-219" stroke="#01495F" fill-opacity="0" fill="#D8D8D8" sketch:type="MSShapeGroup"/>
    <path d="M526.5,42.5 L742.502319,42.5" id="Line-218" stroke="#01495F" fill-opacity="0" fill="#D8D8D8" sketch:type="MSShapeGroup"/>
    <path d="M639.5,86.5 L825.524185,86.5" id="Line-217" stroke="#01495F" fill-opacity="0" fill="#D8D8D8" sketch:type="MSShapeGroup"/>
    <path d="M629.5,142.5 L909.644592,142.5" id="Line-216" stroke="#01495F" fill-opacity="0" fill="#D8D8D8" sketch:type="MSShapeGroup"/>
    <path d="M705.483611,266.5 L827.524185,266.5" id="Line-215" stroke="#01495F" fill-opacity="0" fill="#D8D8D8" sketch:type="MSShapeGroup"/>
    <path d="M628.5,103.5 L696.5,103.5" id="Line-214" stroke="#01495F" fill-opacity="0" fill="#D8D8D8" sketch:type="MSShapeGroup"/>
    <path d="M648.5,112.5 L716.5,112.5" id="Line-213" stroke="#01495F" fill-opacity="0" fill="#D8D8D8" sketch:type="MSShapeGroup"/>
    <path d="M717.5,135.5 L785.5,135.5" id="Line-212" stroke="#01495F" fill-opacity="0" fill="#D8D8D8" sketch:type="MSShapeGroup"/>
    <path d="M757.5,168.5 L825.5,168.5" id="Line-211" stroke="#01495F" fill-opacity="0" fill="#D8D8D8" sketch:type="MSShapeGroup"/>
    <path d="M758.5,304.5 L826.5,304.5" id="Line-210" stroke="#01495F" fill-opacity="0" fill="#D8D8D8" sketch:type="MSShapeGroup"/>
    <path d="M670.5,94.5 L738.5,94.5" id="Line-209" stroke="#01495F" fill-opacity="0" fill="#D8D8D8" sketch:type="MSShapeGroup"/>
    <path d="M629.5,204.5 L697.5,204.5" id="Line-208" stroke="#01495F" fill-opacity="0" fill="#D8D8D8" sketch:type="MSShapeGroup"/>
    <path d="M713.5,233.5 L781.5,233.5" id="Line-205" stroke="#01495F" fill-opacity="0" fill="#D8D8D8" sketch:type="MSShapeGroup"/>
    <path d="M712.5,274.5 L780.5,274.5" id="Line-204" stroke="#01495F" fill-opacity="0" fill="#D8D8D8" sketch:type="MSShapeGroup"/>
    <path d="M706.5,309.5 L731.519993,309.5" id="Line-203" stroke="#01495F" fill-opacity="0" fill="#D8D8D8" sketch:type="MSShapeGroup"/>
    <path d="M734.5,282.5 L800.568146,282.5" id="Line-202" stroke="#01495F" fill-opacity="0" fill="#D8D8D8" sketch:type="MSShapeGroup"/>
    <path d="M758.5,103.5 L826.5,103.5" id="Line-201" stroke="#01495F" fill-opacity="0" fill="#D8D8D8" sketch:type="MSShapeGroup"/>
    <path d="M688.5,51.5 L874.524185,51.5" id="Line-230" stroke="#01495F" fill-opacity="0" fill="#D8D8D8" sketch:type="MSShapeGroup"/>
    <path d="M677.5,68.5 L745.5,68.5" id="Line-229" stroke="#01495F" fill-opacity="0" fill="#D8D8D8" sketch:type="MSShapeGroup"/>
    <path d="M719.5,59.5 L787.5,59.5" id="Line-227" stroke="#01495F" fill-opacity="0" fill="#D8D8D8" sketch:type="MSShapeGroup"/>
    <path d="M807.5,68.5 L875.5,68.5" id="Line-226" stroke="#01495F" fill-opacity="0" fill="#D8D8D8" sketch:type="MSShapeGroup"/>
    <path d="M567.5,347.5 L748.544189,347.5" id="Line-194" stroke="#01495F" fill-opacity="0" fill="#D8D8D8" sketch:type="MSShapeGroup"/>
    <path d="M740.5,368.5 L926.524185,368.5" id="Line-225" stroke="#01495F" fill-opacity="0" fill="#D8D8D8" sketch:type="MSShapeGroup"/>
    <path d="M729.5,385.5 L797.5,385.5" id="Line-224" stroke="#01495F" fill-opacity="0" fill="#D8D8D8" sketch:type="MSShapeGroup"/>
    <path d="M749.5,394.5 L817.5,394.5" id="Line-223" stroke="#01495F" fill-opacity="0" fill="#D8D8D8" sketch:type="MSShapeGroup"/>
    <path d="M771.5,376.5 L839.5,376.5" id="Line-222" stroke="#01495F" fill-opacity="0" fill="#D8D8D8" sketch:type="MSShapeGroup"/>
    <path d="M859.5,385.5 L927.5,385.5" id="Line-206" stroke="#01495F" fill-opacity="0" fill="#D8D8D8" sketch:type="MSShapeGroup"/>
    <path d="M99.5,351.5 L280.544189,351.5" id="Line-235" stroke="#01495F" fill-opacity="0" fill="#D8D8D8" sketch:type="MSShapeGroup"/>
    <path d="M272.5,372.5 L458.524185,372.5" id="Line-234" stroke="#01495F" fill-opacity="0" fill="#D8D8D8" sketch:type="MSShapeGroup"/>
    <path d="M261.5,389.5 L329.5,389.5" id="Line-233" stroke="#01495F" fill-opacity="0" fill="#D8D8D8" sketch:type="MSShapeGroup"/>
    <path d="M281.5,398.5 L349.5,398.5" id="Line-232" stroke="#01495F" fill-opacity="0" fill="#D8D8D8" sketch:type="MSShapeGroup"/>
    <path d="M303.5,380.5 L371.5,380.5" id="Line-231" stroke="#01495F" fill-opacity="0" fill="#D8D8D8" sketch:type="MSShapeGroup"/>
    <path d="M391.5,389.5 L459.5,389.5" id="Line-228" stroke="#01495F" fill-opacity="0" fill="#D8D8D8" sketch:type="MSShapeGroup"/>
    <path d="M294.5,328.5 L362.5,328.5" id="Line-239" stroke="#01495F" fill-opacity="0" fill="#D8D8D8" sketch:type="MSShapeGroup"/>
    <path d="M314.5,337.5 L382.5,337.5" id="Line-238" stroke="#01495F" fill-opacity="0" fill="#D8D8D8" sketch:type="MSShapeGroup"/>
    <path d="M336.5,319.5 L404.5,319.5" id="Line-237" stroke="#01495F" fill-opacity="0" fill="#D8D8D8" sketch:type="MSShapeGroup"/>
    <path d="M424.5,328.5 L492.5,328.5" id="Line-236" stroke="#01495F" fill-opacity="0" fill="#D8D8D8" sketch:type="MSShapeGroup"/>
    <path d="M731.5,224.5 L825.5,224.5" id="Line-200" stroke="#01495F" fill-opacity="0" fill="#D8D8D8" sketch:type="MSShapeGroup"/>
    <path d="M449.5,128.5 L613.5,128.5" id="Line-197" stroke="#01495F" fill-opacity="0" fill="#D8D8D8" sketch:type="MSShapeGroup"/>
    <path d="M338.5,247.5 L406.5,247.5" id="Line-193" stroke="#01495F" fill-opacity="0" fill="#D8D8D8" sketch:type="MSShapeGroup"/>
    <path d="M358.5,256.5 L426.5,256.5" id="Line-192" stroke="#01495F" fill-opacity="0" fill="#D8D8D8" sketch:type="MSShapeGroup"/>
    <path d="M380.5,238.5 L448.5,238.5" id="Line-191" stroke="#01495F" fill-opacity="0" fill="#D8D8D8" sketch:type="MSShapeGroup"/>
    <path d="M75.5,239.5 L143.5,239.5" id="Line-180" stroke="#01495F" fill-opacity="0" fill="#D8D8D8" sketch:type="MSShapeGroup"/>
    <path d="M95.5,248.5 L163.5,248.5" id="Line-179" stroke="#01495F" fill-opacity="0" fill="#D8D8D8" sketch:type="MSShapeGroup"/>
    <path d="M117.5,230.5 L185.5,230.5" id="Line-178" stroke="#01495F" fill-opacity="0" fill="#D8D8D8" sketch:type="MSShapeGroup"/>
    <path d="M159.5,268.5 L227.5,268.5" id="Line-177" stroke="#01495F" fill-opacity="0" fill="#D8D8D8" sketch:type="MSShapeGroup"/>
    <path d="M158.5,309.5 L226.5,309.5" id="Line-176" stroke="#01495F" fill-opacity="0" fill="#D8D8D8" sketch:type="MSShapeGroup"/>
    <path d="M152.5,344.5 L177.519993,344.5" id="Line-175" stroke="#01495F" fill-opacity="0" fill="#D8D8D8" sketch:type="MSShapeGroup"/>
    <path d="M180.5,317.5 L246.568146,317.5" id="Line-174" stroke="#01495F" fill-opacity="0" fill="#D8D8D8" sketch:type="MSShapeGroup"/>
    <path d="M399.483611,272.5 L521.524185,272.5" id="Line-221" stroke="#01495F" fill-opacity="0" fill="#D8D8D8" sketch:type="MSShapeGroup"/>
    <path d="M452.5,310.5 L520.5,310.5" id="Line-220" stroke="#01495F" fill-opacity="0" fill="#D8D8D8" sketch:type="MSShapeGroup"/>
    <path d="M406.5,280.5 L474.5,280.5" id="Line-207" stroke="#01495F" fill-opacity="0" fill="#D8D8D8" sketch:type="MSShapeGroup"/>
    <path d="M428.5,288.5 L494.568146,288.5" id="Line-195" stroke="#01495F" fill-opacity="0" fill="#D8D8D8" sketch:type="MSShapeGroup"/>
    <path d="M204.5,138.5 L272.5,138.5" id="Line-173" stroke="#01495F" fill-opacity="0" fill="#D8D8D8" sketch:type="MSShapeGroup"/>
    <path d="M177.5,259.5 L271.5,259.5" id="Line-172" stroke="#01495F" fill-opacity="0" fill="#D8D8D8" sketch:type="MSShapeGroup"/>
    <path d="M296.5,116.5 L364.5,116.5" id="Line-58" stroke="#01495F" fill-opacity="0" fill="#D8D8D8" sketch:type="MSShapeGroup"/>
    <path d="M342.5,139.5 L410.5,139.5" id="Line-67" stroke="#01495F" fill-opacity="0" fill="#D8D8D8" sketch:type="MSShapeGroup"/>
    <path d="M263.5,124.5 L331.5,124.5" id="Line-59" stroke="#01495F" fill-opacity="0" fill="#D8D8D8" sketch:type="MSShapeGroup"/>
    <path d="M233.5,100.5 L301.5,100.5" id="Line-57" stroke="#01495F" fill-opacity="0" fill="#D8D8D8" sketch:type="MSShapeGroup"/>
  </g>
</svg>
