<svg xmlns="http://www.w3.org/2000/svg" xmlns:xlink="http://www.w3.org/1999/xlink" xmlns:sketch="http://www.bohemiancoding.com/sketch/ns" width="96px" height="140px" viewBox="0 0 96 140" version="1.1">
  <title>Dustan Kasten</title>
  <description>Created by the amazing Mel Shields.</description>
  <g id="dustan" transform="translate(2, 2)" sketch:type="MSShapeGroup" fill="#FFFBE0">
    <path d="M75.6621093,10.3828124 C89.4628897,18.3906254 95.868224,35.0543129 89.9843759,53.3398435 C84.1005278,71.625374 84.2289957,78.9740061 84.2289957,78.9740061 L75.6621093,36.628906 C75.6621093,36.628906 76.2922333,29.6156087 70.4375001,23.5644533 C64.5827668,17.513298 49.9123527,-4.55831623 75.6621093,10.3828124 Z" id="Path-237" stroke="#222222" stroke-width="2" fill="#F7C57C"/>
    <path d="M16.8689359,87.3667411 C16.8689364,87.3667412 20.1339588,101.701082 20.1339588,101.701082 C27.4864057,122.423677 36.176884,128.953128 54.2832045,128.953128 C74.0453869,128.953128 68.2566614,120.377129 75.4843303,109.97613 C82.7119992,99.5751303 86.4761344,85.8769678 86.4761344,85.8769678 C86.4761344,73.8793777 86.476134,54.3969126 86.476134,43.2785278 C86.476134,17.6178453 62.2002047,4.99438028 46.5244992,4.99438028 C30.8487937,4.99438028 5.73250322,16.0997134 5.73250322,41.7603959 C5.73250322,48.6704089 -2.50284228,80.8017187 16.8689359,87.3667411 Z" id="Oval-25" stroke="#222222" fill="#FFFBE0"/>
    <path d="M21.3063151,81.9786018 L21.3063151,105" id="Path-236" stroke="#F7C57C" stroke-width="2"/>
    <path d="M25.9594727,86.8430517 L25.9594727,114.690295" id="Path-235" stroke="#F7C57C" stroke-width="2"/>
    <path d="M29.9594727,92.5868477 L29.9594727,120.434091" id="Path-234" stroke="#F7C57C" stroke-width="2"/>
    <path d="M33.9594727,96.4587457 L33.9594727,124.305989" id="Path-233" stroke="#F7C57C" stroke-width="2"/>
    <path d="M38.3063151,108.986078 L38.3063151,126.241938" id="Path-232" stroke="#F7C57C" stroke-width="2"/>
    <path d="M42.3063151,113.784741 L42.3063151,127.177887" id="Path-231" stroke="#F7C57C" stroke-width="2"/>
    <path d="M46.3063151,118.641271 L46.3063151,128.392473" id="Path-230" stroke="#F7C57C" stroke-width="2"/>
    <path d="M50.3063151,118.575953 L50.3063151,128.113836" id="Path-229" stroke="#F7C57C" stroke-width="2"/>
    <path d="M54.3063151,115.732036 L54.3063151,129.113836" id="Path-228" stroke="#F7C57C" stroke-width="2"/>
    <path d="M58.3063151,108.925231 L58.3063151,128.113836" id="Path-227" stroke="#F7C57C" stroke-width="2"/>
    <path d="M62.3063151,109.922428 L62.3063151,127.398287" id="Path-226" stroke="#F7C57C" stroke-width="2"/>
    <path d="M65.9594727,115.705329 L65.9594727,126.430148" id="Path-225" stroke="#F7C57C" stroke-width="2"/>
    <path d="M69.9594727,115.75546 L69.9594727,122" id="Path-224" stroke="#F7C57C" stroke-width="2"/>
    <path d="M16.8689359,87.3667411 C16.8689364,87.3667412 20.1339588,101.701082 20.1339588,101.701082 C27.4864057,122.423677 35.676884,128.263675 53.7832045,128.263675 C73.5453869,128.263675 68.2566614,120.377129 75.4843303,109.97613 C82.7119992,99.5751303 86.4761344,85.8769678 86.4761344,85.8769678 C86.4761344,73.8793777 86.476134,54.3969126 86.476134,43.2785278 C86.476134,17.6178453 62.2002047,4.99438028 46.5244992,4.99438028 C30.8487937,4.99438028 5.73250322,16.0997134 5.73250322,41.7603959 C5.73250322,48.6704089 -2.50284228,80.8017187 16.8689359,87.3667411 Z" id="Oval-24" stroke="#222222" stroke-width="2"/>
    <path d="M26.7396311,27.1273444 C26.7396311,27.1273444 36.4018727,27.0494999 43.862155,30.2949211 C46.4077464,31.4023211 60.0253897,35.7031265 62.9550772,44.1894546 C68.235341,45.9948095 70.4355459,36.2499993 70.4355459,30.2949211 C76.6640616,33.1464836 73.8320303,40.3124633 73.8320303,40.3124633 C87.5078116,30.2949214 86.859116,21.8341622 81.7421866,14.6718752 C70.4355459,-1.15429684 60.0920758,-0.532630779 36.4394522,0.285156249 C18.9651619,0.88932804 12.1207563,19.2597147 12.1207563,19.2597147 C12.1207563,19.2597147 -9.03938505,33.9228913 3.01196542,65.2782043 C8.96822292,80.775249 20.2596837,81.9918342 20.2596837,81.9918342 L18.0949752,58.1356112 C18.0949752,58.1356112 22.2112477,61.926507 24.2327275,50.404104 C26.2542073,38.881701 26.7396311,27.1273444 26.7396311,27.1273444 Z" id="Path-223" stroke="#222222" stroke-width="2" fill="#F7C57C"/>
    <path d="M43.5187568,98.006751 C46.3807535,100.901721 50.0703956,103.046887 54.330311,104.030365 C59.0063156,105.109906 63.678334,104.630187 67.8016196,102.931604" id="Oval-23" stroke="#000000" stroke-width="2"/>
    <path d="M52.158649,52.6264768 C48.1537519,51.89663 44.2761209,52.3754455 40.2225021,54.0132138" id="Oval-22" stroke="#000000" stroke-width="2"/>
    <path d="M75.5819302,52.2190578 C80.0124932,51.8199102 82.5716338,52.2880063 86.6252526,53.9257746" id="Oval-20" stroke="#000000" stroke-width="2"/>
    <path d="M57.7034697,57.7792394 L57.7034697,61.6511374 C57.7034697,61.6511374 61.5437005,60.7668209 63.5113166,60.7668209 C65.4155985,60.7668209 69.3191636,61.6511374 69.3191636,61.6511374 L69.3191636,57.7792394 L57.7034697,57.7792394 Z" id="Rectangle-791" fill="#222222"/>
    <path d="M17.0485409,57.7792394 L17.0485409,61.6511374 L33.049424,63.0085704 L33.049424,56.0228951 L17.0485409,57.7792394 Z" id="Rectangle-790" fill="#222222"/>
    <path d="M53.8315717,79.0746783 C53.8315717,83.3514587 57.2985872,86.8184743 61.5753676,86.8184743 C65.8521481,86.8184743 69.3191636,83.3514587 69.3191636,79.0746783 L69.3191636,61.1914439" id="Oval-17" stroke="#000000" stroke-width="2"/>
    <rect id="Rectangle-792" stroke="#222222" stroke-width="2" fill="#FFFFFF" x="32.5361328" y="53.9073415" width="25.1673369" height="13.1952695"/>
    <path d="M32.5361328,54.0005311 L32.5361328,67.5130233 L35.3294576,67.5130233 L35.3294576,54.0005311 L32.5361328,54.0005311 Z" id="Rectangle-793" fill="#222222"/>
    <ellipse id="Oval-16" fill="#222222" cx="48.0237247" cy="60.6831629" rx="1.93594899" ry="2.90392348"/>
    <rect id="Rectangle-780" stroke="#222222" stroke-width="2" fill="#FFFFFF" x="69.3191636" y="53.9073415" width="19.3594899" height="13.1952695"/>
    <path d="M86.7427045,54.0005311 L86.7427045,67.5130233 L89.5360293,67.5130233 L89.5360293,54.0005311 L86.7427045,54.0005311 Z" id="Rectangle-794" fill="#222222"/>
    <ellipse id="Oval-11" fill="#222222" cx="80.9348575" cy="60.6831629" rx="1.93594899" ry="2.90392348"/>
  </g>
</svg>
