<svg id="hutchinson" xmlns="http://www.w3.org/2000/svg" xmlns:xlink="http://www.w3.org/1999/xlink" xmlns:sketch="http://www.bohemiancoding.com/sketch/ns" width="421px" height="139px" viewBox="0 0 421 139" version="1.1">
  <title>Hutchinson</title>
  <description>Created by the amazing Mel Shields.</description>
  <g transform="translate(0, -116)">
    <g id="building5" transform="translate(313.000000, 127.000000)" sketch:type="MSShapeGroup"><!--{{{-->
        <rect id="Rectangle-2" stroke="#222222" stroke-width="3" fill="#CD6A45" x="0" y="0" width="104" height="103"/>
        <rect id="Rectangle-33" stroke="#000000" stroke-width="2" x="8" y="13" width="60" height="38.5"/>
        <rect id="Rectangle-14" stroke="#222222" fill="#F1AA8E" x="15" y="23" width="10" height="23"/>
        <rect id="Rectangle-27" stroke="#222222" fill="#FFDED1" x="15" y="46" width="10" height="3"/>
        <rect id="Rectangle-29" stroke="#222222" fill="#FFDED1" x="33" y="46" width="10" height="3"/>
        <rect id="Rectangle-30" stroke="#222222" fill="#FFDED1" x="51" y="46" width="10" height="3"/>
        <rect id="Rectangle-15" stroke="#222222" fill="#F1AA8E" x="33" y="23" width="10" height="23"/>
        <rect id="Rectangle-160" stroke="#222222" fill="#FFDED1" x="8" y="80" width="14" height="22.7051282"/>
        <rect id="Rectangle-163" stroke="#222222" fill="#F1AA8E" x="26" y="80" width="74" height="12.8333333"/>
        <rect id="Rectangle-164" stroke="#000000" stroke-width="2" x="40" y="80" width="14.828776" height="12.8333333"/>
        <rect id="Rectangle-165" stroke="#000000" stroke-width="2" x="54.828776" y="80" width="14.828776" height="12.8333333"/>
        <rect id="Rectangle-166" stroke="#000000" stroke-width="2" x="69.6575521" y="80" width="14.828776" height="12.8333333"/>
        <rect id="Rectangle-161" stroke="#222222" fill="#F1AA8E" x="11" y="83" width="8" height="6.91025641"/>
        <rect id="Rectangle-162" stroke="#222222" fill="#F1AA8E" x="11" y="93" width="8" height="6.91025641"/>
        <rect id="Rectangle-48" stroke="#222222" fill="#F1AA8E" x="0" y="55.5" width="103.170898" height="19"/>
        <rect id="Rectangle-159" stroke="#222222" fill="#FFDED1" x="0" y="58.5" width="103.170898" height="19"/>
        <rect id="Rectangle-37" stroke="#222222" fill="#FFDED1" x="26" y="13" width="6" height="6"/>
        <rect id="Rectangle-38" stroke="#222222" fill="#F1AA8E" x="20" y="13" width="6" height="6"/>
        <rect id="Rectangle-39" stroke="#222222" fill="#FFDED1" x="14" y="13" width="6" height="6"/>
        <rect id="Rectangle-41" stroke="#222222" fill="#F1AA8E" x="32" y="13" width="6" height="6"/>
        <rect id="Rectangle-52" stroke="#222222" fill="#F1AA8E" x="0" y="6" width="103" height="3"/>
        <rect id="Rectangle-40" stroke="#222222" fill="#F1AA8E" x="8" y="13" width="6" height="6"/>
        <rect id="Rectangle-34" stroke="#000000" stroke-width="2" x="79" y="13" width="25" height="38.5"/>
        <rect id="Rectangle-51" stroke="#222222" fill="#F1AA8E" x="97" y="13" width="6" height="6"/>
        <rect id="Rectangle-50" stroke="#222222" fill="#FFDED1" x="91" y="13" width="6" height="6"/>
        <rect id="Rectangle-49" stroke="#222222" fill="#F1AA8E" x="85" y="13" width="6" height="6"/>
        <rect id="Rectangle-47" stroke="#222222" fill="#FFDED1" x="79" y="13" width="6" height="6"/>
        <rect id="Rectangle-46" stroke="#222222" fill="#F1AA8E" x="56" y="13" width="6" height="6"/>
        <rect id="Rectangle-45" stroke="#222222" fill="#FFDED1" x="50" y="13" width="6" height="6"/>
        <rect id="Rectangle-44" stroke="#222222" fill="#F1AA8E" x="44" y="13" width="6" height="6"/>
        <rect id="Rectangle-43" stroke="#222222" fill="#FFDED1" x="62" y="13" width="6" height="6"/>
        <rect id="Rectangle-42" stroke="#222222" fill="#FFDED1" x="38" y="13" width="6" height="6"/>
        <rect id="Rectangle-16" stroke="#222222" fill="#F1AA8E" x="51" y="23" width="10" height="23"/>
        <rect id="Rectangle-158" stroke="#222222" fill="#FFDED1" x="71" y="16" width="5" height="31.5"/>
        <path d="M15.5,40.5 L24.5,40.5" id="Line-13" stroke="#000000" stroke-width="2"/>
        <path d="M33.5,40.5 L42.5,40.5" id="Line-14" stroke="#000000" stroke-width="2"/>
        <path d="M51.5,40.5 L60.5,40.5" id="Line-15" stroke="#000000" stroke-width="2"/>
        <path d="M73.5,47.5039024 L73.5,16.5" id="Line-33" stroke="#000000" stroke-width="2"/>
        <rect id="Rectangle-31" stroke="#222222" fill="#FFDED1" x="87" y="46" width="10" height="3"/>
        <rect id="Rectangle-17" stroke="#222222" fill="#F1AA8E" x="87" y="23" width="10" height="23"/>
        <path d="M87.5,40.5 L96.5,40.5" id="Line-16" stroke="#000000" stroke-width="2"/>
    </g><!--}}}-->
    <g id="building4" transform="translate(236.000000, 127.000000)" sketch:type="MSShapeGroup"><!--{{{-->
        <rect id="Rectangle-3" stroke="#222222" stroke-width="3" fill="#F1AA8E" x="0" y="0" width="77" height="103"/>
        <rect id="Rectangle-137" stroke="#222222" fill="#CD6A45" x="8" y="85" width="10" height="18"/>
        <rect id="Rectangle-138" stroke="#222222" fill="#FFDED1" x="21" y="88" width="22.0289249" height="9"/>
        <rect id="Rectangle-139" stroke="#222222" fill="#FFDED1" x="45.2318173" y="88" width="22.0289249" height="9"/>
        <rect id="Rectangle-12" stroke="#222222" fill="#FFDED1" x="12" y="28" width="21" height="18"/>
        <rect id="Rectangle-140" stroke="#222222" fill="#F1AA8E" x="6" y="1" width="65" height="8"/>
        <rect id="Rectangle-142" stroke="#222222" fill="#FFDED1" x="6" y="13" width="3.08723958" height="2.05815972"/>
        <rect id="Rectangle-143" stroke="#222222" fill="#FFDED1" x="12.1744792" y="13" width="3.08723958" height="2.05815972"/>
        <rect id="Rectangle-150" stroke="#222222" fill="#FFDED1" x="18.3489583" y="13" width="3.08723958" height="2.05815972"/>
        <rect id="Rectangle-149" stroke="#222222" fill="#FFDED1" x="24.5234375" y="13" width="3.08723958" height="2.05815972"/>
        <rect id="Rectangle-152" stroke="#222222" fill="#FFDED1" x="30.6979167" y="13" width="3.08723958" height="2.05815972"/>
        <rect id="Rectangle-151" stroke="#222222" fill="#FFDED1" x="36.8723958" y="13" width="3.08723958" height="2.05815972"/>
        <rect id="Rectangle-154" stroke="#222222" fill="#FFDED1" x="43.046875" y="13" width="3.08723958" height="2.05815972"/>
        <rect id="Rectangle-153" stroke="#222222" fill="#FFDED1" x="49.2213542" y="13" width="3.08723958" height="2.05815972"/>
        <rect id="Rectangle-156" stroke="#222222" fill="#FFDED1" x="55.3958333" y="13" width="3.08723958" height="2.05815972"/>
        <rect id="Rectangle-155" stroke="#222222" fill="#FFDED1" x="61.5703125" y="13" width="3.08723958" height="2.05815972"/>
        <rect id="Rectangle-157" stroke="#222222" fill="#FFDED1" x="67.7447917" y="13" width="3.08723958" height="2.05815972"/>
        <path d="M4,9 L6,13 L71,13 L73,9 L4,9 Z" id="Rectangle-141" stroke="#222222" fill="#CD6A45"/>
        <rect id="Rectangle-24" stroke="#222222" fill="#CD6A45" x="10" y="21" width="25" height="7"/>
        <rect id="Rectangle-25" stroke="#222222" fill="#CD6A45" x="44" y="21" width="25" height="7"/>
        <rect id="Rectangle-26" stroke="#000000" stroke-width="2" x="5" y="46" width="68" height="7"/>
        <rect id="Rectangle-133" stroke="#222222" fill="#CD6A45" x="1" y="53" width="6.34692383" height="18"/>
        <rect id="Rectangle-134" stroke="#222222" fill="#F1AA8E" x="7.34692383" y="53" width="6.34692383" height="18"/>
        <rect id="Rectangle-136" stroke="#222222" fill="#CD6A45" x="13.6938477" y="53" width="6.34692383" height="18"/>
        <rect id="Rectangle-135" stroke="#222222" fill="#F1AA8E" x="20.0407715" y="53" width="6.34692383" height="18"/>
        <rect id="Rectangle-145" stroke="#222222" fill="#F1AA8E" x="51.7753906" y="53" width="6.34692383" height="18"/>
        <rect id="Rectangle-148" stroke="#222222" fill="#CD6A45" x="28.6691895" y="56" width="21" height="12"/>
        <rect id="Rectangle-144" stroke="#222222" fill="#CD6A45" x="58.1223145" y="53" width="6.34692383" height="18"/>
        <rect id="Rectangle-147" stroke="#222222" fill="#F1AA8E" x="64.4692383" y="53" width="6.34692383" height="18"/>
        <rect id="Rectangle-146" stroke="#222222" fill="#CD6A45" x="70.8161621" y="53" width="5.19384766" height="18"/>
        <rect id="Rectangle-101" stroke="#222222" fill="#CD6A45" x="0" y="71" width="76" height="2"/>
        <rect id="Rectangle-104" stroke="#000000" stroke-width="2" x="0" y="83" width="77" height="2"/>
        <rect id="Rectangle-121" stroke="#222222" fill="#FFDED1" x="0" y="83" width="12.7370605" height="2.03125"/>
        <rect id="Rectangle-128" stroke="#000000" stroke-width="2" x="12.7370605" y="83" width="12.7370605" height="2.03125"/>
        <rect id="Rectangle-130" stroke="#222222" fill="#FFDED1" x="25.4741211" y="83" width="12.7370605" height="2.03125"/>
        <rect id="Rectangle-129" stroke="#000000" stroke-width="2" x="38.2111816" y="83" width="12.7370605" height="2.03125"/>
        <rect id="Rectangle-132" stroke="#222222" fill="#FFDED1" x="50.9482422" y="83" width="12.7370605" height="2.03125"/>
        <rect id="Rectangle-131" stroke="#000000" stroke-width="2" x="63.6853027" y="83" width="12.7370605" height="2.03125"/>
        <rect id="Rectangle-102" stroke="#222222" fill="#FFDED1" x="0" y="73" width="77" height="10"/>
        <rect id="Rectangle-13" stroke="#222222" fill="#FFDED1" x="46" y="28" width="21" height="18"/>
        <path d="M12.5,30.5 L32.5,30.5" id="Line-11" stroke="#000000" stroke-width="2"/>
        <path d="M46.5,30.5 L66.5,30.5" id="Line-12" stroke="#000000" stroke-width="2"/>
    </g><!--}}}-->
    <g id="building3" transform="translate(170.000000, 137.000000)" sketch:type="MSShapeGroup"><!--{{{-->
        <rect id="Rectangle-4" stroke="#222222" stroke-width="3" fill="#CD6A45" x="0" y="0" width="66" height="93"/>
        <g id="window" transform="translate(1.000000, 10.000000)">
            <path d="M18,2.03516405 C25.1253545,2.53803562 30.7785436,8.37302663 30.9936489,15.5742188 L30.9936489,15.5742188 L24.4881169,15.5742187 C24.267387,11.630181 20.9992399,8.5 17,8.5 C13.0007601,8.5 9.73261305,11.630181 9.51188309,15.5742188 L3.00635107,15.5742187 C3.22145638,8.37302663 8.87464546,2.53803562 16,2.03516405 L16,0 L18,0 L18,2.03516405 Z" id="Oval-1" stroke="#222222" fill="#F1AA8E"/>
            <rect id="Rectangle-18" stroke="#222222" fill="#FFDED1" x="12" y="11" width="10" height="15"/>
            <rect id="Rectangle-22" stroke="#222222" fill="#F1AA8E" x="0" y="51" width="64.0078125" height="7"/>
            <rect id="Rectangle-77" stroke="#000000" stroke-width="2" x="0" y="58" width="65" height="3"/>
            <rect id="Rectangle-79" stroke="#222222" fill="#F1AA8E" x="0" y="61" width="36.5834704" height="15"/>
            <rect id="Rectangle-81" stroke="#222222" fill="#F1AA8E" x="51.2277961" y="61" width="12.7800164" height="15"/>
            <rect id="Rectangle-80" stroke="#000000" stroke-width="2" x="39.2199836" y="61" width="9.36348684" height="21"/>
            <rect id="Rectangle-82" stroke="#000000" stroke-width="2" x="40.8486842" y="63" width="6.10608553" height="7"/>
            <rect id="Rectangle-83" stroke="#000000" stroke-width="2" x="40.8486842" y="72" width="6.10608553" height="8"/>
            <rect id="Rectangle-84" stroke="#222222" fill="#FFDED1" x="30.9469572" y="37" width="25.0530428" height="9"/>
            <rect id="Rectangle-23" stroke="#000000" stroke-width="2" x="3" y="51" width="3.05304276" height="7"/>
            <rect id="Rectangle-36" stroke="#000000" stroke-width="2" x="9.10608553" y="51" width="3.05304276" height="7"/>
            <rect id="Rectangle-70" stroke="#000000" stroke-width="2" x="15.2121711" y="51" width="3.05304276" height="7"/>
            <rect id="Rectangle-73" stroke="#000000" stroke-width="2" x="21.3182566" y="51" width="3.05304276" height="7"/>
            <rect id="Rectangle-72" stroke="#000000" stroke-width="2" x="27.4243421" y="51" width="3.05304276" height="7"/>
            <rect id="Rectangle-71" stroke="#000000" stroke-width="2" x="33.5304276" y="51" width="3.05304276" height="7"/>
            <rect id="Rectangle-76" stroke="#000000" stroke-width="2" x="39.6365132" y="51" width="3.05304276" height="7"/>
            <rect id="Rectangle-75" stroke="#000000" stroke-width="2" x="45.7425987" y="51" width="3.05304276" height="7"/>
            <rect id="Rectangle-74" stroke="#000000" stroke-width="2" x="51.8486842" y="51" width="3.05304276" height="7"/>
            <rect id="Rectangle-78" stroke="#000000" stroke-width="2" x="57.9547697" y="51" width="3.05304276" height="7"/>
            <path d="M22,15.6176758 L22,26 L28,26 L28,15.6176757 L22,15.6176758 Z" id="Rectangle-20" stroke="#000000" stroke-width="2" transform="translate(25.000000, 21.000000) scale(-1, 1) translate(-25.000000, -21.000000) "/>
            <path d="M6,15.6176758 L6,26 L12,26 L12,15.6176757 L6,15.6176758 Z" id="Rectangle-28" stroke="#000000" stroke-width="2" transform="translate(9.000000, 21.000000) scale(-1, 1) translate(-9.000000, -21.000000) "/>
            <path d="M12.5,17.5 L21.5553856,17.5" id="Line-5" stroke="#000000" stroke-width="2"/>
        </g>
        <g id="window" transform="translate(33.000000, 10.000000)">
            <path d="M16,2.03516405 C23.1253545,2.53803562 28.7785436,8.37302663 28.9936489,15.5742188 L28.9936489,15.5742188 L22.4881169,15.5742187 C22.267387,11.630181 18.9992399,8.5 15,8.5 C11.0007601,8.5 7.73261305,11.630181 7.51188309,15.5742188 L1.00635107,15.5742187 C1.22145638,8.37302663 6.87464546,2.53803562 14,2.03516405 L14,0 L16,0 L16,2.03516405 Z" id="Oval-2" stroke="#222222" fill="#F1AA8E"/>
            <rect id="Rectangle-19" stroke="#222222" fill="#FFDED1" x="10" y="11" width="10" height="15"/>
            <path d="M20,15.6176758 L20,26 L26,26 L26,15.6176757 L20,15.6176758 Z" id="Rectangle-21" stroke="#000000" stroke-width="2" transform="translate(23.000000, 21.000000) scale(-1, 1) translate(-23.000000, -21.000000) "/>
            <path d="M4,15.6176758 L4,26 L10,26 L10,15.6176757 L4,15.6176758 Z" id="Rectangle-32" stroke="#000000" stroke-width="2" transform="translate(7.000000, 21.000000) scale(-1, 1) translate(-7.000000, -21.000000) "/>
            <path d="M10.5,17.5 L19.5553856,17.5" id="Line-6" stroke="#000000" stroke-width="2"/>
        </g>
        <path d="M0.5,4.5 L65.5076904,4.5" id="Line" stroke="#000000" stroke-width="2"/>
        <path d="M0.5,9.5 L65.5076904,9.5" id="Line-7" stroke="#000000" stroke-width="2"/>
        <path d="M0.5,14.5 L9.5,14.5" id="Line-8" stroke="#000000" stroke-width="2"/>
        <path d="M25.5,14.5 L40.5,14.5" id="Line-21" stroke="#000000" stroke-width="2"/>
        <path d="M56.5,14.5 L65.5,14.5" id="Line-22" stroke="#000000" stroke-width="2"/>
        <path d="M0.5,19.5 L5.59901953,19.5" id="Line-9" stroke="#000000" stroke-width="2"/>
        <path d="M30.5,19.5 L35.5990195,19.5" id="Line-23" stroke="#000000" stroke-width="2"/>
        <path d="M60.5,19.5 L65.5990195,19.5" id="Line-24" stroke="#000000" stroke-width="2"/>
        <path d="M0.5,24.5 L3.6622777,24.5" id="Line-10" stroke="#000000" stroke-width="2"/>
        <path d="M0.5,29.5 L6.58276272,29.5" id="Line-17" stroke="#000000" stroke-width="2"/>
        <path d="M29.5,29.5 L36.5,29.5" id="Line-25" stroke="#000000" stroke-width="2"/>
        <path d="M59.5,29.5 L66.5,29.5" id="Line-26" stroke="#000000" stroke-width="2"/>
        <path d="M0.5,34.5 L6.5,34.5" id="Line-18" stroke="#000000" stroke-width="2"/>
        <path d="M29.5,34.5 L36.5,34.5" id="Line-27" stroke="#000000" stroke-width="2"/>
        <path d="M59.5,34.5 L66.5,34.5" id="Line-28" stroke="#000000" stroke-width="2"/>
        <path d="M0.5,39.5 L65.5076904,39.5" id="Line-19" stroke="#000000" stroke-width="2"/>
        <path d="M0.5,44.5 L65.5076904,44.5" id="Line-20" stroke="#000000" stroke-width="2"/>
        <path d="M0.5,58.5 L65.5076904,58.5" id="Line-29" stroke="#000000" stroke-width="2"/>
    </g><!--}}}-->
    <g id="building2" transform="translate(96.000000, 119.000000)" sketch:type="MSShapeGroup"><!--{{{-->
        <rect id="Rectangle-86" stroke="#000000" stroke-width="2" x="9" y="72" width="57" height="13"/>
        <rect id="Rectangle-5" stroke="#222222" stroke-width="3" fill="#F1AA8E" x="0" y="0" width="74" height="111"/>
        <rect id="Rectangle-53" stroke="#000000" stroke-width="2" x="9" y="10" width="57" height="51"/>
        <rect id="Rectangle-8" stroke="#222222" fill="#FFDED1" x="9" y="34" width="10" height="18"/>
        <path d="M27,97 L26.0441895,97 L9,97 L9,85 L66,85 L66,97 L36,97 L36,85 L27,85 L27,97 Z" id="Rectangle-85" stroke="#222222" fill="#FFDED1"/>
        <rect id="Rectangle-105" stroke="#222222" fill="#CD6A45" x="27" y="85.0617676" width="9" height="25.9382324"/>
        <rect id="Rectangle-106" stroke="#222222" fill="#FFDED1" x="28.7348908" y="87" width="5.53021846" height="18"/>
        <rect id="Rectangle-54" stroke="#222222" fill="#FFDED1" x="0" y="0.979003906" width="8.20751953" height="3.02099609"/>
        <rect id="Rectangle-63" stroke="#222222" fill="#CD6A45" x="9" y="10" width="8.13500977" height="4"/>
        <rect id="Rectangle-64" stroke="#000000" stroke-width="2" x="17.1350098" y="10" width="8.13500977" height="4"/>
        <rect id="Rectangle-65" stroke="#222222" fill="#CD6A45" x="25.2700195" y="10" width="8.13500977" height="4"/>
        <rect id="Rectangle-66" stroke="#000000" stroke-width="2" x="33.4050293" y="10" width="8.13500977" height="4"/>
        <rect id="Rectangle-67" stroke="#222222" fill="#CD6A45" x="41.5400391" y="10" width="8.13500977" height="4"/>
        <rect id="Rectangle-68" stroke="#000000" stroke-width="2" x="49.6750488" y="10" width="8.13500977" height="4"/>
        <rect id="Rectangle-88" stroke="#222222" fill="#CD6A45" x="13.1282709" y="72" width="4.12827094" height="13"/>
        <rect id="Rectangle-69" stroke="#222222" fill="#CD6A45" x="57.8100586" y="10" width="8.13500977" height="4"/>
        <rect id="Rectangle-93" stroke="#222222" fill="#CD6A45" x="37.4868164" y="72" width="4.12827094" height="13"/>
        <rect id="Rectangle-89" stroke="#222222" fill="#CD6A45" x="21.2477861" y="72" width="4.12827094" height="13"/>
        <rect id="Rectangle-95" stroke="#222222" fill="#CD6A45" x="45.6063316" y="72" width="4.12827094" height="13"/>
        <rect id="Rectangle-55" stroke="#222222" fill="#CD6A45" x="8.20751953" y="0.935546875" width="8.20751953" height="3.06445312"/>
        <rect id="Rectangle-97" stroke="#222222" fill="#CD6A45" x="53.7258467" y="72" width="4.12827094" height="13"/>
        <rect id="Rectangle-99" stroke="#222222" fill="#CD6A45" x="61.8453619" y="72" width="4.12827094" height="13"/>
        <rect id="Rectangle-91" stroke="#222222" fill="#CD6A45" x="29.3673013" y="72" width="4.12827094" height="13"/>
        <rect id="Rectangle-56" stroke="#222222" fill="#FFDED1" x="16.4150391" y="0.979003906" width="8.20751953" height="3.02099609"/>
        <rect id="Rectangle-57" stroke="#222222" fill="#CD6A45" x="24.6225586" y="0.935546875" width="8.20751953" height="3.06445312"/>
        <rect id="Rectangle-58" stroke="#222222" fill="#FFDED1" x="32.8300781" y="0.979003906" width="8.20751953" height="3.02099609"/>
        <rect id="Rectangle-59" stroke="#222222" fill="#CD6A45" x="41.0375977" y="0.935546875" width="8.20751953" height="3.06445312"/>
        <rect id="Rectangle-60" stroke="#222222" fill="#FFDED1" x="49.2451172" y="0.979003906" width="8.20751953" height="3.02099609"/>
        <rect id="Rectangle-61" stroke="#222222" fill="#CD6A45" x="57.4526367" y="0.935546875" width="8.20751953" height="3.06445312"/>
        <rect id="Rectangle-62" stroke="#222222" fill="#FFDED1" x="65.6601562" y="0.979003906" width="8.20751953" height="3.02099609"/>
        <rect id="Rectangle-9" stroke="#222222" fill="#FFDED1" x="24" y="34" width="10" height="18"/>
        <rect id="Rectangle-11" stroke="#222222" fill="#FFDED1" x="41" y="34" width="10" height="18"/>
        <rect id="Rectangle-10" stroke="#222222" fill="#FFDED1" x="56" y="34" width="10" height="18"/>
        <path d="M9.5,42.5 L18.5553856,42.5" id="Line" stroke="#222222" stroke-linecap="square"/>
        <path d="M9.5,54.5 L65.5,54.5" id="Line-32" stroke="#222222" stroke-linecap="square"/>
        <path d="M24.5,42.5 L33.5553856,42.5" id="Line-2" stroke="#222222" stroke-linecap="square"/>
        <path d="M1.5,42.5 L8.5,42.5" id="Line-30" stroke="#222222" stroke-linecap="square"/>
        <path d="M66.5,42.5 L73.5,42.5" id="Line-31" stroke="#222222" stroke-linecap="square"/>
        <path d="M41.5,42.5 L50.5553856,42.5" id="Line-3" stroke="#222222" stroke-linecap="square"/>
        <path d="M56.5,42.5 L65.5553856,42.5" id="Line-4" stroke="#222222" stroke-linecap="square"/>
        <path d="M14,24 L16,24 L15,26 L14,24 Z" id="Triangle-1" fill="#222222"/>
        <path d="M59,24 L61,24 L60,26 L59,24 Z" id="Triangle-2" fill="#222222"/>
        <rect id="Rectangle-100" stroke="#222222" fill-opacity="0" fill="#D8D8D8" x="57.7170909" y="72" width="4.12827094" height="13"/>
        <rect id="Rectangle-87" stroke="#222222" fill-opacity="0" fill="#D8D8D8" x="9" y="72" width="4.12827094" height="13"/>
        <rect id="Rectangle-90" stroke="#222222" fill-opacity="0" fill="#D8D8D8" x="17.1195152" y="72" width="4.12827094" height="13"/>
        <rect id="Rectangle-92" stroke="#222222" fill-opacity="0" fill="#D8D8D8" x="25.2390303" y="72" width="4.12827094" height="13"/>
        <rect id="Rectangle-94" stroke="#222222" fill-opacity="0" fill="#D8D8D8" x="33.3585455" y="72" width="4.12827094" height="13"/>
        <rect id="Rectangle-96" stroke="#222222" fill-opacity="0" fill="#D8D8D8" x="41.4780606" y="72" width="4.12827094" height="13"/>
        <rect id="Rectangle-98" stroke="#222222" fill-opacity="0" fill="#D8D8D8" x="49.5975758" y="72" width="4.12827094" height="13"/>
    </g><!--}}}-->
    <g id="building1" transform="translate(0.000000, 155.000000)" sketch:type="MSShapeGroup"><!--{{{-->
        <path d="M65,10 L96,10 L96,75 L0,75 L0,10 L32,10 L32,0 L65,0 L65,10 Z" id="Rectangle-6" stroke="#222222" stroke-width="3" fill="#CD6A45"/>
        <path d="M0.5,13.5 L95.5473557,13.5" id="Line" stroke="#000000" stroke-width="2"/>
        <path d="M32.5,3.5 L65.5151482,3.5" id="Line-34" stroke="#000000" stroke-width="2"/>
        <rect id="Rectangle-107" stroke="#222222" fill="#F1AA8E" x="20" y="23" width="11" height="11"/>
        <rect id="Rectangle-109" stroke="#000000" stroke-width="2" x="23.5" y="26.5" width="4" height="4"/>
        <rect id="Rectangle-108" stroke="#222222" fill="#FFDED1" x="31" y="23" width="44" height="11"/>
        <rect id="Rectangle-110" stroke="#222222" fill="#F1AA8E" x="0" y="40" width="90" height="2"/>
        <rect id="Rectangle-111" stroke="#222222" fill="#F1AA8E" x="0" y="49" width="90" height="2"/>
        <rect id="Rectangle-112" stroke="#222222" fill="#F1AA8E" x="0" y="42" width="90" height="7"/>
        <rect id="Rectangle-113" stroke="#222222" fill="#FFDED1" x="67" y="42" width="11" height="7"/>
        <rect id="Rectangle-120" stroke="#222222" fill="#F1AA8E" x="54" y="51" width="19" height="24"/>
        <rect id="Rectangle-122" stroke="#222222" fill="#FFDED1" x="67" y="53" width="4" height="11"/>
        <rect id="Rectangle-123" stroke="#222222" fill="#FFDED1" x="75" y="53" width="15" height="17"/>
        <rect id="Rectangle-124" stroke="#222222" fill="#FFDED1" x="34" y="53" width="17" height="17"/>
        <rect id="Rectangle-127" stroke="#000000" stroke-width="2" x="56" y="53" width="9" height="22"/>
        <rect id="Rectangle-125" stroke="#222222" fill="#FFDED1" x="13" y="53" width="18" height="17"/>
        <rect id="Rectangle-126" stroke="#222222" fill="#FFDED1" x="1" y="53" width="9" height="17"/>
        <rect id="Rectangle-114" stroke="#000000" stroke-width="2" x="56" y="42" width="11" height="7"/>
        <rect id="Rectangle-115" stroke="#222222" fill="#FFDED1" x="45" y="42" width="11" height="7"/>
        <rect id="Rectangle-116" stroke="#000000" stroke-width="2" x="34" y="42" width="11" height="7"/>
        <rect id="Rectangle-117" stroke="#222222" fill="#FFDED1" x="23" y="42" width="11" height="7"/>
        <rect id="Rectangle-118" stroke="#000000" stroke-width="2" x="12" y="42" width="11" height="7"/>
        <rect id="Rectangle-119" stroke="#222222" fill="#FFDED1" x="1" y="42" width="11" height="7"/>
    </g><!--}}}-->
    <rect id="Rectangle-170" stroke="#222222" stroke-width="3" fill="#A0A0A0" sketch:type="MSShapeGroup" x="0" y="230" width="417" height="9"/>
    <rect id="Rectangle-171" stroke="#222222" stroke-width="3" fill="#0E5363" sketch:type="MSShapeGroup" x="0" y="239" width="417" height="5"/>
  </g>
</svg>
