<svg id="tiramisu" xmlns="http://www.w3.org/2000/svg" xmlns:xlink="http://www.w3.org/1999/xlink" xmlns:sketch="http://www.bohemiancoding.com/sketch/ns" width="238px" height="365px" viewBox="0 0 238 365" version="1.1">
  <title>Tiramisu</title>
  <description>Created by the amazing Mel Shields.</description>
  <g>
    <rect id="Rectangle-707" stroke="#222222" stroke-width="3" fill="#A0A0A0" sketch:type="MSShapeGroup" x="0" y="289" width="234" height="70"/>
    <rect id="Rectangle-721" stroke="#222222" stroke-width="3" fill="#0E5363" sketch:type="MSShapeGroup" x="0" y="347" width="234" height="11"/>
    <rect id="Rectangle-639" stroke="#222222" stroke-width="3" fill="#FFE6C2" sketch:type="MSShapeGroup" x="95" y="17" width="44.2631579" height="316"/>
    <rect id="Rectangle-694" stroke="#222222" stroke-width="3" fill="#FFE6C2" sketch:type="MSShapeGroup" x="94.7368421" y="5" width="44.2631579" height="12"/>
    <rect id="Rectangle-647" fill="#222222" sketch:type="MSShapeGroup" x="105" y="135" width="25" height="3"/>
    <rect id="Rectangle-642" stroke="#222222" fill="#FFFBE0" sketch:type="MSShapeGroup" x="110" y="30" width="16" height="17"/>
    <rect id="Rectangle-695" stroke="#222222" fill="#FFFBE0" sketch:type="MSShapeGroup" x="95" y="9" width="44" height="4"/>
    <g id="right" transform="translate(139.000000, 0.000000)" sketch:type="MSShapeGroup">
        <path d="M-0.263157895,0 L-0.263157895,17 L94.8916044,91.046875 L94.8916044,74.046875 L-0.263157895,0 Z" id="Rectangle-696" stroke="#222222" stroke-width="3" fill="#FFE6C2"/>
        <path d="M-0.263157895,16 L-0.263157895,333.560547 L94.8916044,325.080078 L94.8916044,90.046875 L-0.263157895,16 Z" id="Rectangle-701" stroke="#222222" stroke-width="3" fill="#F7C57C"/>
        <path d="M7.10542736e-15,6 L-3.39376964e-15,10.6074219 L94.5683594,83.46875 L94.5683594,78.8613281 L7.10542736e-15,6 Z" id="Rectangle-697" stroke="#222222" fill="#FFFBE0"/>
        <path d="M-0.263157895,18 L-0.263157895,22.6074219 L94.3052015,95.46875 L94.3052015,90.8613281 L-0.263157895,18 Z" id="Rectangle-698" stroke="#000000" stroke-width="2"/>
        <path d="M-0.263157895,187 L-0.263157895,191.607422 L95.3007841,219 L95.3007841,214.392578 L-0.263157895,187 Z" id="Rectangle-699" stroke="#222222" fill="#FFE6C2"/>
        <path d="M-0.263157895,237 L-0.263157895,241.607422 L95.3007841,256 L95.3007841,251.392578 L-0.263157895,237 Z" id="Rectangle-700" stroke="#222222" fill="#FFE6C2"/>
        <path d="M-0.654296866,309.149902 L-0.654296866,313.757324 L95.4189453,309.149902 L95.4189453,304.54248 L-0.654296866,309.149902 Z" id="Rectangle-706" stroke="#222222" fill="#FFE6C2"/>
        <path d="M20,44 L20,61 L30,68 L30,52 L20,44 Z" id="Rectangle-664" stroke="#222222" fill="#FFFBE0"/>
        <path d="M20,44 L20,61 L25,64 L25,48 L20,44 Z" id="Rectangle-679" stroke="#000000" stroke-width="2"/>
        <path d="M51,67 L51,83 L59,89 L59,73 L51,67 Z" id="Rectangle-669" stroke="#222222" fill="#FFFBE0"/>
        <path d="M51,67 L51,83 L55,86 L55,70 L51,67 Z" id="Rectangle-681" stroke="#000000" stroke-width="2"/>
        <path d="M77,87 L77,101 L85,107 L85,93 L77,87 Z" id="Rectangle-674" stroke="#222222" fill="#FFFBE0"/>
        <path d="M77,87 L77,101 L81,104 L81,90 L77,87 Z" id="Rectangle-682" stroke="#000000" stroke-width="2"/>
        <path d="M77,115 L77,131 L85,136 L85,120 L77,115 Z" id="Rectangle-675" stroke="#222222" fill="#FFFBE0"/>
        <path d="M77,115 L77,131 L81,133 L81,118 L77,115 Z" id="Rectangle-684" stroke="#000000" stroke-width="2"/>
        <path d="M77,146 L77,166 L85,170 L85,151 L77,146 Z" id="Rectangle-676" stroke="#222222" fill="#FFFBE0"/>
        <path d="M77,146 L77,166 L81,168 L81,149 L77,146 Z" id="Rectangle-688" stroke="#000000" stroke-width="2"/>
        <path d="M77,181 L77,202 L85,205 L85,185 L77,181 Z" id="Rectangle-677" stroke="#222222" fill="#FFFBE0"/>
        <path d="M77,181 L77,202 L81,203 L81,183 L77,181 Z" id="Rectangle-690" stroke="#000000" stroke-width="2"/>
        <path d="M77,219 L77,242 L85,244 L85,221 L77,219 Z" id="Rectangle-678" stroke="#222222" fill="#FFFBE0"/>
        <path d="M77,219 L77,242 L81,243 L81,220 L77,219 Z" id="Rectangle-693" stroke="#000000" stroke-width="2"/>
        <path d="M51,98 L51,116 L60,122 L60,104 L51,98 Z" id="Rectangle-670" stroke="#222222" fill="#FFFBE0"/>
        <path d="M51,98 L51,116 L56,119 L56,102 L51,98 Z" id="Rectangle-683" stroke="#000000" stroke-width="2"/>
        <path d="M51,132 L51,154 L62,159 L62,138 L51,132 Z" id="Rectangle-671" stroke="#222222" fill="#FFFBE0"/>
        <path d="M51,132 L51,154 L57,156 L57,136 L51,132 Z" id="Rectangle-687" stroke="#000000" stroke-width="2"/>
        <path d="M51,171 L51,194 L62,198 L62,175 L51,171 Z" id="Rectangle-672" stroke="#222222" fill="#FFFBE0"/>
        <path d="M51,171 L51,194 L57,196 L57,174 L51,171 Z" id="Rectangle-689" stroke="#000000" stroke-width="2"/>
        <path d="M51,212 L51,237 L63,240 L63,216 L51,212 Z" id="Rectangle-673" stroke="#222222" fill="#FFFBE0"/>
        <path d="M51,212 L51,237 L57,238 L57,214 L51,212 Z" id="Rectangle-692" stroke="#000000" stroke-width="2"/>
        <path d="M20,78 L20,98 L31,104 L31,85 L20,78 Z" id="Rectangle-665" stroke="#222222" fill="#FFFBE0"/>
        <path d="M20,78 L20,98 L26,101 L26,82 L20,78 Z" id="Rectangle-680" stroke="#000000" stroke-width="2"/>
        <path d="M20,116 L20,139 L32,145 L32,123 L20,116 Z" id="Rectangle-666" stroke="#222222" fill="#FFFBE0"/>
        <path d="M20,116 L20,139 L26,142 L26,120 L20,116 Z" id="Rectangle-685" stroke="#000000" stroke-width="2"/>
        <path d="M20,158 L20,185 L34,189 L34,164 L20,158 Z" id="Rectangle-667" stroke="#222222" fill="#FFFBE0"/>
        <path d="M20,158 L20,185 L27,187 L27,161 L20,158 Z" id="Rectangle-686" stroke="#000000" stroke-width="2"/>
        <path d="M20,204 L20,231 L36,235 L36,208 L20,204 Z" id="Rectangle-668" stroke="#222222" fill="#FFFBE0"/>
        <path d="M20,254 L20,308 L41,307 L41,256 L20,254 Z" id="Rectangle-702" stroke="#222222" fill="#FFE6C2"/>
        <path d="M24,259 L24,303 L37,302.603027 L37,260 L24,259 Z" id="Rectangle-703" stroke="#222222" fill="#FFFBE0"/>
        <path d="M58,258.27274 L58,306.2294 L76.4755859,305.34961 L76.4755859,260.03232 L58,258.27274 Z" id="Rectangle-705" stroke="#222222" fill="#FFE6C2"/>
        <path d="M61.5191592,262.671689 L61.519159,302.090464 L72.9564265,301.741212 L72.9564267,263.551479 L61.5191592,262.671689 Z" id="Rectangle-704" stroke="#222222" fill="#FFFBE0"/>
        <path d="M20,204 L20,231 L28,233 L28,206 L20,204 Z" id="Rectangle-691" stroke="#000000" stroke-width="2"/>
    </g>
    <g id="right-2" transform="translate(117.000000, 173.000000) scale(-1, 1) translate(-117.000000, -173.000000) " sketch:type="MSShapeGroup">
        <path d="M138.736842,0 L138.736842,17 L233.891604,91.046875 L233.891604,74.046875 L138.736842,0 Z" id="Rectangle-696" stroke="#222222" stroke-width="3" fill="#FFE6C2"/>
        <path d="M138.736842,16 L138.736842,333.560547 L233.891604,325.080078 L233.891604,90.046875 L138.736842,16 Z" id="Rectangle-701" stroke="#222222" stroke-width="3" fill="#F7C57C"/>
        <path d="M139,6 L139,10.6074219 L233.100586,83.0878906 L233.100586,78.4804688 L139,6 Z" id="Rectangle-697" stroke="#222222" fill="#FFFBE0"/>
        <path d="M138.736842,18 L138.736842,22.6074219 L233.305201,95.46875 L233.305201,90.8613281 L138.736842,18 Z" id="Rectangle-698" stroke="#000000" stroke-width="2"/>
        <path d="M138.736842,187 L138.736842,191.607422 L232.968753,218.419922 L232.968753,213.8125 L138.736842,187 Z" id="Rectangle-699" stroke="#222222" fill="#FFE6C2"/>
        <path d="M138.736842,237 L138.736842,241.607422 L232.850589,255.993164 L232.850589,251.385742 L138.736842,237 Z" id="Rectangle-700" stroke="#222222" fill="#FFE6C2"/>
        <path d="M138.345703,309.149902 L138.345703,313.757324 L232.568359,309.149902 L232.568359,304.54248 L138.345703,309.149902 Z" id="Rectangle-706" stroke="#222222" fill="#FFE6C2"/>
        <path d="M159,44 L159,61 L169,68 L169,52 L159,44 Z" id="Rectangle-664" stroke="#222222" fill="#FFFBE0"/>
        <path d="M159,44 L159,61 L164,64 L164,48 L159,44 Z" id="Rectangle-679" stroke="#000000" stroke-width="2"/>
        <path d="M190,67 L190,83 L198,89 L198,73 L190,67 Z" id="Rectangle-669" stroke="#222222" fill="#FFFBE0"/>
        <path d="M190,67 L190,83 L194,86 L194,70 L190,67 Z" id="Rectangle-681" stroke="#000000" stroke-width="2"/>
        <path d="M216,87 L216,101 L224,107 L224,93 L216,87 Z" id="Rectangle-674" stroke="#222222" fill="#FFFBE0"/>
        <path d="M216,87 L216,101 L220,104 L220,90 L216,87 Z" id="Rectangle-682" stroke="#000000" stroke-width="2"/>
        <path d="M216,115 L216,131 L224,136 L224,120 L216,115 Z" id="Rectangle-675" stroke="#222222" fill="#FFFBE0"/>
        <path d="M216,115 L216,131 L220,133 L220,118 L216,115 Z" id="Rectangle-684" stroke="#000000" stroke-width="2"/>
        <path d="M216,146 L216,166 L224,170 L224,151 L216,146 Z" id="Rectangle-676" stroke="#222222" fill="#FFFBE0"/>
        <path d="M216,146 L216,166 L220,168 L220,149 L216,146 Z" id="Rectangle-688" stroke="#000000" stroke-width="2"/>
        <path d="M216,181 L216,202 L224,205 L224,185 L216,181 Z" id="Rectangle-677" stroke="#222222" fill="#FFFBE0"/>
        <path d="M216,181 L216,202 L220,203 L220,183 L216,181 Z" id="Rectangle-690" stroke="#000000" stroke-width="2"/>
        <path d="M216,219 L216,242 L224,244 L224,221 L216,219 Z" id="Rectangle-678" stroke="#222222" fill="#FFFBE0"/>
        <path d="M216,219 L216,242 L220,243 L220,220 L216,219 Z" id="Rectangle-693" stroke="#000000" stroke-width="2"/>
        <path d="M190,98 L190,116 L199,122 L199,104 L190,98 Z" id="Rectangle-670" stroke="#222222" fill="#FFFBE0"/>
        <path d="M190,98 L190,116 L195,119 L195,102 L190,98 Z" id="Rectangle-683" stroke="#000000" stroke-width="2"/>
        <path d="M190,132 L190,154 L201,159 L201,138 L190,132 Z" id="Rectangle-671" stroke="#222222" fill="#FFFBE0"/>
        <path d="M190,132 L190,154 L196,156 L196,136 L190,132 Z" id="Rectangle-687" stroke="#000000" stroke-width="2"/>
        <path d="M190,171 L190,194 L201,198 L201,175 L190,171 Z" id="Rectangle-672" stroke="#222222" fill="#FFFBE0"/>
        <path d="M190,171 L190,194 L196,196 L196,174 L190,171 Z" id="Rectangle-689" stroke="#000000" stroke-width="2"/>
        <path d="M190,212 L190,237 L202,240 L202,216 L190,212 Z" id="Rectangle-673" stroke="#222222" fill="#FFFBE0"/>
        <path d="M190,212 L190,237 L196,238 L196,214 L190,212 Z" id="Rectangle-692" stroke="#000000" stroke-width="2"/>
        <path d="M159,78 L159,98 L170,104 L170,85 L159,78 Z" id="Rectangle-665" stroke="#222222" fill="#FFFBE0"/>
        <path d="M159,78 L159,98 L165,101 L165,82 L159,78 Z" id="Rectangle-680" stroke="#000000" stroke-width="2"/>
        <path d="M159,116 L159,139 L171,145 L171,123 L159,116 Z" id="Rectangle-666" stroke="#222222" fill="#FFFBE0"/>
        <path d="M159,116 L159,139 L165,142 L165,120 L159,116 Z" id="Rectangle-685" stroke="#000000" stroke-width="2"/>
        <path d="M159,158 L159,185 L173,189 L173,164 L159,158 Z" id="Rectangle-667" stroke="#222222" fill="#FFFBE0"/>
        <path d="M159,158 L159,185 L166,187 L166,161 L159,158 Z" id="Rectangle-686" stroke="#000000" stroke-width="2"/>
        <path d="M159,204 L159,231 L175,235 L175,208 L159,204 Z" id="Rectangle-668" stroke="#222222" fill="#FFFBE0"/>
        <path d="M159,254 L159,308 L180,307 L180,256 L159,254 Z" id="Rectangle-702" stroke="#222222" fill="#FFE6C2"/>
        <path d="M163,259 L163,303 L176,302.603027 L176,260 L163,259 Z" id="Rectangle-703" stroke="#222222" fill="#FFFBE0"/>
        <path d="M220,334.450195 L220,346.054688 L233,345.949991 L233,334.713934 L220,334.450195 Z" id="Rectangle-709" stroke="#222222" fill="#C1C1C1"/>
        <path d="M199.519159,334.450195 L199.519159,346.054688 L212.519159,345.949991 L212.519159,334.713934 L199.519159,334.450195 Z" id="Rectangle-710" stroke="#222222" fill="#C1C1C1"/>
        <path d="M179,334.450195 L179,346.054688 L192,345.949991 L192,334.713934 L179,334.450195 Z" id="Rectangle-712" stroke="#222222" fill="#C1C1C1"/>
        <path d="M158.519159,334.450195 L158.519159,346.054688 L171.519159,345.949991 L171.519159,334.713934 L158.519159,334.450195 Z" id="Rectangle-711" stroke="#222222" fill="#C1C1C1"/>
        <path d="M139,334.450195 L139,346.054688 L152,345.949991 L152,334.713934 L139,334.450195 Z" id="Rectangle-716" stroke="#222222" fill="#C1C1C1"/>
        <path d="M118.519159,334.450195 L118.519159,346.054688 L131.519159,345.949991 L131.519159,334.713934 L118.519159,334.450195 Z" id="Rectangle-715" stroke="#222222" fill="#C1C1C1"/>
        <path d="M98,334.450195 L98,346.054688 L111,345.949991 L111,334.713934 L98,334.450195 Z" id="Rectangle-714" stroke="#222222" fill="#C1C1C1"/>
        <path d="M57,334.450195 L57,346.054688 L70,345.949991 L70,334.713934 L57,334.450195 Z" id="Rectangle-719" stroke="#222222" fill="#C1C1C1"/>
        <path d="M36.5191592,334.450195 L36.5191592,346.054688 L49.5191592,345.949991 L49.5191592,334.713934 L36.5191592,334.450195 Z" id="Rectangle-718" stroke="#222222" fill="#C1C1C1"/>
        <path d="M16,334.450195 L16,346.054688 L29,345.949991 L29,334.713934 L16,334.450195 Z" id="Rectangle-717" stroke="#222222" fill="#C1C1C1"/>
        <path d="M0,334.450195 L0,346.054688 L9.48084077,345.949991 L9.48084077,334.713934 L0,334.450195 Z" id="Rectangle-720" stroke="#222222" fill="#C1C1C1"/>
        <path d="M77.5191592,334.450195 L77.5191592,346.054688 L90.5191592,345.949991 L90.5191592,334.713934 L77.5191592,334.450195 Z" id="Rectangle-713" stroke="#222222" fill="#C1C1C1"/>
        <path d="M197,258.27274 L197,306.2294 L215.475586,305.34961 L215.475586,260.03232 L197,258.27274 Z" id="Rectangle-705" stroke="#222222" fill="#FFE6C2"/>
        <path d="M200.519159,262.671689 L200.519159,302.090464 L211.956427,301.741212 L211.956427,263.551479 L200.519159,262.671689 Z" id="Rectangle-704" stroke="#222222" fill="#FFFBE0"/>
        <path d="M159,204 L159,231 L167,233 L167,206 L159,204 Z" id="Rectangle-691" stroke="#000000" stroke-width="2"/>
    </g>
    <rect id="Rectangle-643" stroke="#000000" stroke-width="2" sketch:type="MSShapeGroup" x="110" y="30" width="8" height="17"/>
    <rect id="Rectangle-708" stroke="#222222" stroke-width="3" sketch:type="MSShapeGroup" x="0" y="334" width="234" height="24"/>
    <rect id="Rectangle-645" stroke="#222222" fill="#FFFBE0" sketch:type="MSShapeGroup" x="110" y="67" width="16" height="17"/>
    <rect id="Rectangle-644" stroke="#000000" stroke-width="2" sketch:type="MSShapeGroup" x="110" y="67" width="8" height="17"/>
    <rect id="Rectangle-648" stroke="#000000" stroke-width="2" sketch:type="MSShapeGroup" x="106" y="117" width="23" height="19.0546875"/>
    <rect id="Rectangle-647" stroke="#222222" stroke-width="3" fill="#FFFBE0" sketch:type="MSShapeGroup" x="109.5" y="98" width="16" height="38"/>
    <rect id="Rectangle-652" stroke="#222222" stroke-width="3" fill="#FFFBE0" sketch:type="MSShapeGroup" x="109.5" y="147" width="16" height="38"/>
    <path d="M106.532227,119.500977 L128.5,119.500977" id="Path-144" stroke="#000000" stroke-width="2" sketch:type="MSShapeGroup"/>
    <path d="M109.499023,118.532227 L109.499023,136.5" id="Path-145" stroke="#000000" stroke-width="2" sketch:type="MSShapeGroup"/>
    <path d="M113.499023,118.532227 L113.499023,136.5" id="Path-146" stroke="#000000" stroke-width="2" sketch:type="MSShapeGroup"/>
    <path d="M117.499023,119.5 L117.499023,136.5" id="Path-147" stroke="#000000" stroke-width="2" sketch:type="MSShapeGroup"/>
    <path d="M121.499023,118.532227 L121.499023,136.5" id="Path-148" stroke="#000000" stroke-width="2" sketch:type="MSShapeGroup"/>
    <path d="M125.499023,118.532227 L125.499023,136.5" id="Path-149" stroke="#000000" stroke-width="2" sketch:type="MSShapeGroup"/>
    <rect id="Rectangle-650" fill="#222222" sketch:type="MSShapeGroup" x="105" y="184" width="25" height="3"/>
    <rect id="Rectangle-655" fill="#222222" sketch:type="MSShapeGroup" x="105" y="83" width="25" height="3"/>
    <rect id="Rectangle-656" fill="#222222" sketch:type="MSShapeGroup" x="105" y="46" width="25" height="3"/>
    <rect id="Rectangle-649" stroke="#000000" stroke-width="2" sketch:type="MSShapeGroup" x="106" y="166" width="23" height="19.0546875"/>
    <path d="M106.532227,168.500977 L128.5,168.500977" id="Path-155" stroke="#000000" stroke-width="2" sketch:type="MSShapeGroup"/>
    <path d="M108.5,210.500977 L125.5,210.500977" id="Path-156" stroke="#000000" stroke-width="2" sketch:type="MSShapeGroup"/>
    <path d="M109.5,219.500977 L124.5,219.500977" id="Path-157" stroke="#000000" stroke-width="2" sketch:type="MSShapeGroup"/>
    <path d="M95.5,239.500977 L138.546532,239.500977" id="Path-158" stroke="#000000" stroke-width="2" sketch:type="MSShapeGroup"/>
    <path d="M109.499023,167.532227 L109.499023,185.5" id="Path-154" stroke="#000000" stroke-width="2" sketch:type="MSShapeGroup"/>
    <path d="M113.499023,167.532227 L113.499023,185.5" id="Path-153" stroke="#000000" stroke-width="2" sketch:type="MSShapeGroup"/>
    <path d="M117.499023,168.5 L117.499023,185.5" id="Path-152" stroke="#000000" stroke-width="2" sketch:type="MSShapeGroup"/>
    <path d="M121.499023,167.532227 L121.499023,185.5" id="Path-151" stroke="#000000" stroke-width="2" sketch:type="MSShapeGroup"/>
    <path d="M125.499023,167.532227 L125.499023,185.5" id="Path-150" stroke="#000000" stroke-width="2" sketch:type="MSShapeGroup"/>
    <rect id="Rectangle-663" stroke="#222222" stroke-width="2" fill="#FFFFFF" sketch:type="MSShapeGroup" x="100" y="288.945312" width="23" height="43.0546875"/>
    <rect id="Rectangle-646" stroke="#000000" stroke-width="2" sketch:type="MSShapeGroup" x="113.5" y="98" width="8" height="34.0546875"/>
    <rect id="Rectangle-662" fill="#222222" sketch:type="MSShapeGroup" x="102.5" y="288" width="18.5" height="44"/>
    <rect id="Rectangle-653" stroke="#222222" stroke-width="3" fill="#FFFBE0" sketch:type="MSShapeGroup" x="109.5" y="201" width="16" height="29"/>
    <rect id="Rectangle-651" stroke="#000000" stroke-width="2" sketch:type="MSShapeGroup" x="113.5" y="147" width="8" height="34.0546875"/>
    <rect id="Rectangle-657" stroke="#000000" stroke-width="2" sketch:type="MSShapeGroup" x="95" y="237" width="44" height="6"/>
    <rect id="Rectangle-654" stroke="#000000" stroke-width="2" sketch:type="MSShapeGroup" x="117.5" y="201" width="8" height="29"/>
    <rect id="Rectangle-659" stroke="#222222" fill="#EB9D2B" sketch:type="MSShapeGroup" x="123" y="264" width="13" height="24"/>
    <rect id="Rectangle-661" stroke="#222222" fill="#FFFBE0" sketch:type="MSShapeGroup" x="99" y="249.945312" width="37" height="11.0546875"/>
    <path d="M100,265 L89.765625,283.245117 L123.765625,283.245117 L134,265 L100,265 Z" id="Rectangle-658" stroke="#222222" stroke-width="3" fill="#EB9D2B" sketch:type="MSShapeGroup"/>
    <rect id="Rectangle-660" fill="#222222" sketch:type="MSShapeGroup" x="87.5" y="284" width="49" height="5.9453125"/>
  </g>
</svg>
