<svg id="uppsala" xmlns="http://www.w3.org/2000/svg" xmlns:xlink="http://www.w3.org/1999/xlink" xmlns:sketch="http://www.bohemiancoding.com/sketch/ns" width="464px" height="148px" viewBox="0 0 464 148" version="1.1">
  <title>Uppsala</title>
  <description>Created by the amazing Mel Shields.</description>
  <g>
    <path d="M213.364654,23.6359772 C210.24592,20.7580891 206.078272,19 201.5,19 C192.746548,19 185.494162,25.4268243 184.204037,33.8192758 C181.850586,31.459885 178.59578,30 175,30 C172.422685,30 170.020544,30.7500107 167.999928,32.0436818 L167.999928,32.0436818 C167.999976,32.0291268 168,32.0145662 168,32 C168,24.8202983 162.179702,19 155,19 C152.668031,19 150.479472,19.6140137 148.587176,20.6891892 C143.238436,11.8828792 133.556228,6 122.5,6 C107.318625,6 94.7278561,17.0917008 92.3893563,31.6134385 L92.3893563,31.6134385 C87.5803586,27.4906758 81.3310435,25 74.5,25 C71.2251875,25 68.0840711,25.5724216 65.1712494,26.6226664 C60.0546413,19.0094498 51.3623305,14 41.5,14 C25.7598846,14 13,26.7598846 13,42.5 C13,58.2401154 25.7598846,71 41.5,71 C45.3547771,71 49.0308097,70.234704 52.3844506,68.8477592 L52.3844506,68.8477592 C57.3941267,75.6137333 65.4348296,80 74.5,80 C87.6359847,80 98.6208153,70.7898149 101.349122,58.4748147 C106.832589,63.753938 114.287215,67 122.5,67 C136.529577,67 148.34673,57.5274898 151.90469,44.62924 L151.90469,44.62924 C152.896704,44.8715375 153.93335,45 155,45 C157.577315,45 159.979456,44.2499893 162.000072,42.9563182 C162.000024,42.9708732 162,42.9854338 162,43 C162,50.1797017 167.820298,56 175,56 C180.82768,56 185.759733,52.1653668 187.410603,46.8816577 C190.597452,51.1994615 195.721676,54 201.5,54 C208.870693,54 215.177102,49.4432586 217.755815,42.9931878 C222.464046,49.6522197 230.224284,54 239,54 C244.351567,54 249.325504,52.3831698 253.459975,49.6113432 C255.8216,52.8759698 259.662753,55 264,55 C269.644962,55 274.449578,51.4020558 276.245718,46.3742996 C279.580902,51.2242165 285.169077,54.4042969 291.5,54.4042969 C297.120823,54.4042969 302.156173,51.897588 305.549121,47.9410992 C309.641667,51.9398748 315.239879,54.4042969 321.413687,54.4042969 C333.951737,54.4042969 344.115835,44.2401988 344.115835,31.7021484 C344.115835,19.1640981 333.951737,9 321.413687,9 C312.966221,9 305.596372,13.6138319 301.686654,20.4589844 L301.686654,20.4589844 C298.765201,18.5283117 295.263865,17.4042969 291.5,17.4042969 C282.318182,17.4042969 274.698664,24.0933008 273.248594,32.8641613 C271.106419,30.695713 268.207189,29.2768411 264.979723,29.036363 C264.993199,28.6925811 265,28.3470848 265,28 C265,13.6405965 253.359403,2 239,2 C226.127736,2 215.44029,11.3543224 213.364654,23.6359772 L213.364654,23.6359772 Z" id="Oval-36" stroke="#222222" stroke-width="3" fill="#93D6AB" sketch:type="MSShapeGroup"/>
    <rect id="Rectangle-627" stroke="#222222" stroke-width="3" fill="#EA9D2B" sketch:type="MSShapeGroup" x="337.923077" y="25.4042969" width="31.0769231" height="112.595703"/>
    <rect id="Rectangle-583" stroke="#222222" fill="#F7C57C" sketch:type="MSShapeGroup" x="342" y="35" width="23" height="14"/>
    <rect id="Rectangle-634" stroke="#000000" stroke-width="2" sketch:type="MSShapeGroup" x="342" y="54" width="23" height="14"/>
    <rect id="Rectangle-635" stroke="#000000" stroke-width="2" sketch:type="MSShapeGroup" x="342" y="74" width="23" height="14"/>
    <rect id="Rectangle-636" stroke="#000000" stroke-width="2" sketch:type="MSShapeGroup" x="342" y="94" width="23" height="14"/>
    <rect id="Rectangle-637" stroke="#000000" stroke-width="2" sketch:type="MSShapeGroup" x="342" y="114" width="23" height="14"/>
    <path d="M279.461538,45 L269.461538,69 L362.397085,69 L362.397085,45 L279.461538,45 Z" id="Rectangle-545" stroke="#222222" stroke-width="3" fill="#EA9D2B" sketch:type="MSShapeGroup" transform="translate(315.961538, 57.000000) scale(-1, 1) translate(-315.961538, -57.000000) "/>
    <rect id="Rectangle-542" stroke="#222222" stroke-width="3" fill="#FFFFFF" sketch:type="MSShapeGroup" x="270" y="69" width="89" height="69"/>
    <rect id="Rectangle-619" stroke="#222222" stroke-width="3" fill="#FFE6C1" sketch:type="MSShapeGroup" x="232.923077" y="69" width="37.0769231" height="69"/>
    <rect id="Rectangle-620" stroke="#222222" stroke-width="3" fill="#EA9D2B" sketch:type="MSShapeGroup" x="232.923077" y="45" width="37.0769231" height="24"/>
    <path d="M343.692308,0 L332.692308,30 L369.769231,30 L369.769231,0 L343.692308,0 Z" id="Rectangle-626" stroke="#222222" stroke-width="3" fill="#EA9D2B" sketch:type="MSShapeGroup"/>
    <rect id="Rectangle-581" stroke="#222222" stroke-width="3" fill="#F7C57C" sketch:type="MSShapeGroup" x="369" y="30" width="89" height="108"/>
    <rect id="Rectangle-625" stroke="#222222" stroke-width="3" fill="#EA9D2B" sketch:type="MSShapeGroup" x="369" y="0" width="89" height="30"/>
    <rect id="Rectangle-546" fill="#222222" sketch:type="MSShapeGroup" x="281" y="54" width="5.53846154" height="9"/>
    <rect id="Rectangle-547" fill="#222222" sketch:type="MSShapeGroup" x="297" y="54" width="5.53846154" height="9"/>
    <rect id="Rectangle-549" fill="#222222" sketch:type="MSShapeGroup" x="313" y="54" width="5.53846154" height="9"/>
    <rect id="Rectangle-548" fill="#222222" sketch:type="MSShapeGroup" x="329" y="54" width="5.53846154" height="9"/>
    <rect id="Rectangle-550" fill="#222222" sketch:type="MSShapeGroup" x="345" y="54" width="5.53846154" height="9"/>
    <rect id="Rectangle-555" fill="#222222" sketch:type="MSShapeGroup" x="281" y="74" width="5.53846154" height="12.4042969"/>
    <rect id="Rectangle-554" fill="#222222" sketch:type="MSShapeGroup" x="297" y="74" width="5.53846154" height="12.4042969"/>
    <rect id="Rectangle-553" fill="#222222" sketch:type="MSShapeGroup" x="313" y="74" width="5.53846154" height="12.4042969"/>
    <rect id="Rectangle-552" fill="#222222" sketch:type="MSShapeGroup" x="329" y="74" width="5.53846154" height="12.4042969"/>
    <rect id="Rectangle-551" fill="#222222" sketch:type="MSShapeGroup" x="345" y="74" width="5.53846154" height="12.4042969"/>
    <rect id="Rectangle-590" fill="#222222" sketch:type="MSShapeGroup" x="387.230769" y="50.5957031" width="5.53846154" height="12.4042969"/>
    <rect id="Rectangle-605" fill="#222222" sketch:type="MSShapeGroup" x="388" y="30.4042969" width="5.53846154" height="11"/>
    <rect id="Rectangle-606" fill="#222222" sketch:type="MSShapeGroup" x="397.538462" y="30.4042969" width="5.53846154" height="11"/>
    <rect id="Rectangle-607" fill="#222222" sketch:type="MSShapeGroup" x="407.076923" y="30.4042969" width="5.53846154" height="11"/>
    <rect id="Rectangle-610" fill="#222222" sketch:type="MSShapeGroup" x="434.230769" y="30.4042969" width="5.53846154" height="11"/>
    <rect id="Rectangle-609" fill="#222222" sketch:type="MSShapeGroup" x="444.230769" y="30.4042969" width="5.53846154" height="11"/>
    <rect id="Rectangle-591" fill="#222222" sketch:type="MSShapeGroup" x="397.230769" y="50.5957031" width="5.53846154" height="12.4042969"/>
    <rect id="Rectangle-592" fill="#222222" sketch:type="MSShapeGroup" x="407.230769" y="50.5957031" width="5.53846154" height="12.4042969"/>
    <rect id="Rectangle-595" fill="#222222" sketch:type="MSShapeGroup" x="387.230769" y="68.5957031" width="5.53846154" height="12.4042969"/>
    <rect id="Rectangle-594" fill="#222222" sketch:type="MSShapeGroup" x="397.230769" y="68.5957031" width="5.53846154" height="12.4042969"/>
    <rect id="Rectangle-593" fill="#222222" sketch:type="MSShapeGroup" x="407.230769" y="68.5957031" width="5.53846154" height="12.4042969"/>
    <rect id="Rectangle-598" fill="#222222" sketch:type="MSShapeGroup" x="387.230769" y="88.5957031" width="5.53846154" height="12.4042969"/>
    <rect id="Rectangle-597" fill="#222222" sketch:type="MSShapeGroup" x="397.230769" y="88.5957031" width="5.53846154" height="12.4042969"/>
    <rect id="Rectangle-596" fill="#222222" sketch:type="MSShapeGroup" x="407.230769" y="88.5957031" width="5.53846154" height="12.4042969"/>
    <rect id="Rectangle-614" stroke="#000000" stroke-width="2" sketch:type="MSShapeGroup" x="387.230769" y="109.595703" width="5.53846154" height="12.4042969"/>
    <rect id="Rectangle-613" stroke="#000000" stroke-width="2" sketch:type="MSShapeGroup" x="396.230769" y="109.595703" width="5.53846154" height="12.4042969"/>
    <rect id="Rectangle-612" stroke="#000000" stroke-width="2" sketch:type="MSShapeGroup" x="406.230769" y="109.595703" width="5.53846154" height="12.4042969"/>
    <rect id="Rectangle-617" stroke="#000000" stroke-width="2" sketch:type="MSShapeGroup" x="416.230769" y="109.595703" width="5.53846154" height="12.4042969"/>
    <rect id="Rectangle-616" stroke="#000000" stroke-width="2" sketch:type="MSShapeGroup" x="426.230769" y="109.595703" width="5.53846154" height="12.4042969"/>
    <rect id="Rectangle-615" stroke="#000000" stroke-width="2" sketch:type="MSShapeGroup" x="435.230769" y="109.595703" width="5.53846154" height="12.4042969"/>
    <rect id="Rectangle-446" stroke="#222222" stroke-width="3" fill="#EA9D2B" sketch:type="MSShapeGroup" x="3" y="48" width="37" height="90"/>
    <rect id="Rectangle-640" stroke="#222222" stroke-width="3" fill="#0E5363" sketch:type="MSShapeGroup" x="3" y="138.404297" width="455" height="5.59570312"/>
    <rect id="Rectangle-452" stroke="#222222" fill="#F7C57C" sketch:type="MSShapeGroup" x="4" y="52" width="36" height="3"/>
    <rect id="Rectangle-453" stroke="#222222" fill="#F7C57C" sketch:type="MSShapeGroup" x="3.92307692" y="73" width="35.0769231" height="3"/>
    <rect id="Rectangle-456" fill="#222222" sketch:type="MSShapeGroup" x="7" y="57" width="5" height="14"/>
    <rect id="Rectangle-457" fill="#222222" sketch:type="MSShapeGroup" x="15" y="57" width="5" height="14"/>
    <rect id="Rectangle-458" fill="#222222" sketch:type="MSShapeGroup" x="23" y="57" width="5" height="14"/>
    <rect id="Rectangle-461" fill="#222222" sketch:type="MSShapeGroup" x="7" y="78" width="5" height="14"/>
    <rect id="Rectangle-460" fill="#222222" sketch:type="MSShapeGroup" x="15" y="78" width="5" height="14"/>
    <rect id="Rectangle-459" fill="#222222" sketch:type="MSShapeGroup" x="23" y="78" width="5" height="14"/>
    <rect id="Rectangle-464" fill="#222222" sketch:type="MSShapeGroup" x="7" y="99" width="5" height="14"/>
    <rect id="Rectangle-463" fill="#222222" sketch:type="MSShapeGroup" x="15" y="99" width="5" height="14"/>
    <rect id="Rectangle-462" fill="#222222" sketch:type="MSShapeGroup" x="23" y="99" width="5" height="14"/>
    <rect id="Rectangle-467" fill="#222222" sketch:type="MSShapeGroup" x="7" y="120" width="5" height="14"/>
    <rect id="Rectangle-466" fill="#222222" sketch:type="MSShapeGroup" x="15" y="120" width="5" height="14"/>
    <rect id="Rectangle-465" fill="#222222" sketch:type="MSShapeGroup" x="23" y="120" width="5" height="14"/>
    <rect id="Rectangle-455" stroke="#222222" fill="#F7C57C" sketch:type="MSShapeGroup" x="4" y="94" width="36" height="3"/>
    <rect id="Rectangle-454" stroke="#222222" fill="#F7C57C" sketch:type="MSShapeGroup" x="3.92307692" y="115" width="35.0769231" height="3"/>
    <path d="M10,37 L0,48 L40,48 L40,37 L10,37 Z" id="Rectangle-451" stroke="#222222" stroke-width="3" fill="#EA9D2B" sketch:type="MSShapeGroup"/>
    <rect id="Rectangle-618" stroke="#000000" stroke-width="2" sketch:type="MSShapeGroup" x="444.230769" y="109.595703" width="5.53846154" height="12.4042969"/>
    <rect id="Rectangle-641" stroke="#000000" stroke-width="2" sketch:type="MSShapeGroup" x="453.230769" y="109.595703" width="5.53846154" height="12.4042969"/>
    <rect id="Rectangle-468" stroke="#222222" stroke-width="3" fill="#F7C57C" sketch:type="MSShapeGroup" x="34" y="48" width="99" height="90"/>
    <rect id="Rectangle-469" stroke="#222222" stroke-width="3" fill="#F7C57C" sketch:type="MSShapeGroup" x="134" y="48" width="99" height="90"/>
    <rect id="Rectangle-604" fill="#222222" sketch:type="MSShapeGroup" x="434.230769" y="50.5957031" width="5.53846154" height="12.4042969"/>
    <rect id="Rectangle-472" stroke="#222222" fill="#FFE6C1" sketch:type="MSShapeGroup" x="35" y="54" width="97" height="3"/>
    <rect id="Rectangle-492" stroke="#000000" stroke-width="2" sketch:type="MSShapeGroup" x="34" y="61" width="199" height="62"/>
    <rect id="Rectangle-621" stroke="#000000" stroke-width="2" sketch:type="MSShapeGroup" transform="translate(296.000000, 131.500000) scale(1, -1) translate(-296.000000, -131.500000) " x="234" y="124" width="124" height="15"/>
    <rect id="Rectangle-622" stroke="#222222" fill="#EA9D2B" sketch:type="MSShapeGroup" x="257.769231" y="74" width="7.53846154" height="50.0224609"/>
    <rect id="Rectangle-623" stroke="#222222" fill="#EA9D2B" sketch:type="MSShapeGroup" x="247.076923" y="74" width="7.53846154" height="50.0224609"/>
    <rect id="Rectangle-624" stroke="#222222" fill="#EA9D2B" sketch:type="MSShapeGroup" x="236.307692" y="74" width="7.53846154" height="50.0224609"/>
    <rect id="Rectangle-493" stroke="#222222" fill="#FFE6C1" sketch:type="MSShapeGroup" x="35.0527344" y="73" width="8.48572718" height="50"/>
    <rect id="Rectangle-494" stroke="#222222" fill="#FFE6C1" sketch:type="MSShapeGroup" x="46.5384615" y="73" width="9.07692308" height="50"/>
    <rect id="Rectangle-496" stroke="#222222" fill="#FFE6C1" sketch:type="MSShapeGroup" x="58.4615385" y="73" width="9.07692308" height="50"/>
    <rect id="Rectangle-495" stroke="#222222" fill="#FFE6C1" sketch:type="MSShapeGroup" x="70.5384615" y="73" width="9.07692308" height="50"/>
    <rect id="Rectangle-500" stroke="#222222" fill="#FFE6C1" sketch:type="MSShapeGroup" x="83.4615385" y="73" width="9.07692308" height="50"/>
    <rect id="Rectangle-499" stroke="#222222" fill="#FFE6C1" sketch:type="MSShapeGroup" x="95.5384615" y="73" width="9.07692308" height="50"/>
    <rect id="Rectangle-498" stroke="#222222" fill="#FFE6C1" sketch:type="MSShapeGroup" x="107.461538" y="73" width="9.07692308" height="50"/>
    <rect id="Rectangle-497" stroke="#222222" fill="#FFE6C1" sketch:type="MSShapeGroup" x="119.538462" y="73" width="9.07692308" height="50"/>
    <rect id="Rectangle-501" stroke="#222222" fill="#FFE6C1" sketch:type="MSShapeGroup" x="138.538462" y="73" width="17.4615385" height="50"/>
    <rect id="Rectangle-541" stroke="#222222" fill="#EA9D2B" sketch:type="MSShapeGroup" x="144.538462" y="67" width="6.46153846" height="6"/>
    <rect id="Rectangle-542" stroke="#222222" fill="#EA9D2B" sketch:type="MSShapeGroup" x="168.538462" y="67" width="6.46153846" height="6"/>
    <rect id="Rectangle-543" stroke="#222222" fill="#EA9D2B" sketch:type="MSShapeGroup" x="192.307692" y="67" width="6.46153846" height="6"/>
    <rect id="Rectangle-544" stroke="#222222" fill="#EA9D2B" sketch:type="MSShapeGroup" x="216.076923" y="67" width="6.46153846" height="6"/>
    <rect id="Rectangle-529" stroke="#222222" fill="#F7C57C" sketch:type="MSShapeGroup" x="141.538462" y="79" width="12" height="44"/>
    <rect id="Rectangle-502" stroke="#222222" fill="#FFE6C1" sketch:type="MSShapeGroup" x="162.538462" y="73" width="17.4615385" height="50"/>
    <rect id="Rectangle-504" stroke="#222222" fill="#FFE6C1" sketch:type="MSShapeGroup" x="186.538462" y="73" width="17.4615385" height="50"/>
    <rect id="Rectangle-503" stroke="#222222" fill="#FFE6C1" sketch:type="MSShapeGroup" x="210.538462" y="73" width="17.4615385" height="50"/>
    <rect id="Rectangle-530" stroke="#222222" fill="#F7C57C" sketch:type="MSShapeGroup" x="165" y="79" width="12" height="44"/>
    <rect id="Rectangle-531" stroke="#222222" fill="#F7C57C" sketch:type="MSShapeGroup" x="189.538462" y="79" width="12" height="44"/>
    <rect id="Rectangle-532" stroke="#222222" fill="#F7C57C" sketch:type="MSShapeGroup" x="213.538462" y="79" width="12" height="44"/>
    <rect id="Rectangle-474" fill="#222222" sketch:type="MSShapeGroup" x="41" y="48" width="5.53846154" height="6"/>
    <rect id="Rectangle-521" stroke="#222222" fill="#EA9D2B" sketch:type="MSShapeGroup" x="36.4615385" y="67" width="5.53846154" height="6"/>
    <rect id="Rectangle-522" stroke="#222222" fill="#EA9D2B" sketch:type="MSShapeGroup" x="48.4615385" y="67" width="5.53846154" height="6"/>
    <rect id="Rectangle-523" stroke="#222222" fill="#EA9D2B" sketch:type="MSShapeGroup" x="60.4615385" y="67" width="5.53846154" height="6"/>
    <rect id="Rectangle-524" stroke="#222222" fill="#EA9D2B" sketch:type="MSShapeGroup" x="72.4615385" y="67" width="5.53846154" height="6"/>
    <rect id="Rectangle-525" stroke="#222222" fill="#EA9D2B" sketch:type="MSShapeGroup" x="85.4615385" y="67" width="5.53846154" height="6"/>
    <rect id="Rectangle-526" stroke="#222222" fill="#EA9D2B" sketch:type="MSShapeGroup" x="97.4615385" y="67" width="5.53846154" height="6"/>
    <rect id="Rectangle-527" stroke="#222222" fill="#EA9D2B" sketch:type="MSShapeGroup" x="109.461538" y="67" width="5.53846154" height="6"/>
    <rect id="Rectangle-528" stroke="#222222" fill="#EA9D2B" sketch:type="MSShapeGroup" x="121.461538" y="67" width="5.53846154" height="6"/>
    <rect id="Rectangle-505" fill="#222222" sketch:type="MSShapeGroup" x="36.4615385" y="79" width="5.53846154" height="14"/>
    <rect id="Rectangle-506" fill="#222222" sketch:type="MSShapeGroup" x="36.4615385" y="101" width="5.53846154" height="14"/>
    <rect id="Rectangle-508" fill="#222222" sketch:type="MSShapeGroup" x="48.4615385" y="79" width="5.53846154" height="14"/>
    <rect id="Rectangle-507" fill="#222222" sketch:type="MSShapeGroup" x="48.4615385" y="101" width="5.53846154" height="14"/>
    <rect id="Rectangle-510" fill="#222222" sketch:type="MSShapeGroup" x="60.4615385" y="79" width="5.53846154" height="14"/>
    <rect id="Rectangle-509" fill="#222222" sketch:type="MSShapeGroup" x="60.4615385" y="101" width="5.53846154" height="14"/>
    <rect id="Rectangle-512" fill="#222222" sketch:type="MSShapeGroup" x="72.4615385" y="79" width="5.53846154" height="14"/>
    <rect id="Rectangle-511" fill="#222222" sketch:type="MSShapeGroup" x="72.4615385" y="101" width="5.53846154" height="14"/>
    <rect id="Rectangle-514" fill="#222222" sketch:type="MSShapeGroup" x="85.4615385" y="79" width="5.53846154" height="14"/>
    <rect id="Rectangle-513" fill="#222222" sketch:type="MSShapeGroup" x="85.4615385" y="101" width="5.53846154" height="14"/>
    <rect id="Rectangle-516" fill="#222222" sketch:type="MSShapeGroup" x="97.4615385" y="79" width="5.53846154" height="14"/>
    <rect id="Rectangle-515" fill="#222222" sketch:type="MSShapeGroup" x="97.4615385" y="101" width="5.53846154" height="14"/>
    <rect id="Rectangle-518" fill="#222222" sketch:type="MSShapeGroup" x="109.461538" y="79" width="5.53846154" height="14"/>
    <rect id="Rectangle-517" fill="#222222" sketch:type="MSShapeGroup" x="109.461538" y="101" width="5.53846154" height="14"/>
    <rect id="Rectangle-520" fill="#222222" sketch:type="MSShapeGroup" x="121.461538" y="79" width="5.53846154" height="14"/>
    <rect id="Rectangle-533" fill="#222222" sketch:type="MSShapeGroup" x="145.461538" y="85" width="5.53846154" height="14"/>
    <rect id="Rectangle-534" fill="#222222" sketch:type="MSShapeGroup" x="168.230769" y="85" width="5.53846154" height="14"/>
    <rect id="Rectangle-535" fill="#222222" sketch:type="MSShapeGroup" x="192.769231" y="85" width="5.53846154" height="14"/>
    <rect id="Rectangle-536" fill="#222222" sketch:type="MSShapeGroup" x="217.230769" y="85" width="5.53846154" height="14"/>
    <rect id="Rectangle-540" fill="#222222" sketch:type="MSShapeGroup" x="145.461538" y="101" width="5.53846154" height="14"/>
    <rect id="Rectangle-539" fill="#222222" sketch:type="MSShapeGroup" x="168.230769" y="101" width="5.53846154" height="14"/>
    <rect id="Rectangle-538" fill="#222222" sketch:type="MSShapeGroup" x="192.769231" y="101" width="5.53846154" height="14"/>
    <rect id="Rectangle-537" fill="#222222" sketch:type="MSShapeGroup" x="217.230769" y="101" width="5.53846154" height="14"/>
    <rect id="Rectangle-519" fill="#222222" sketch:type="MSShapeGroup" x="121.461538" y="101" width="5.53846154" height="14"/>
    <rect id="Rectangle-475" fill="#222222" sketch:type="MSShapeGroup" x="51" y="48" width="5.53846154" height="6"/>
    <rect id="Rectangle-477" fill="#222222" sketch:type="MSShapeGroup" x="61" y="48" width="5.53846154" height="6"/>
    <rect id="Rectangle-476" fill="#222222" sketch:type="MSShapeGroup" x="71" y="48" width="5.53846154" height="6"/>
    <rect id="Rectangle-479" fill="#222222" sketch:type="MSShapeGroup" x="81" y="48" width="5.53846154" height="6"/>
    <rect id="Rectangle-478" fill="#222222" sketch:type="MSShapeGroup" x="91" y="48" width="5.53846154" height="6"/>
    <rect id="Rectangle-481" fill="#222222" sketch:type="MSShapeGroup" x="101" y="48" width="5.53846154" height="6"/>
    <rect id="Rectangle-480" fill="#222222" sketch:type="MSShapeGroup" x="111" y="48" width="5.53846154" height="6"/>
    <rect id="Rectangle-482" fill="#222222" sketch:type="MSShapeGroup" x="121" y="48" width="5.53846154" height="6"/>
    <rect id="Rectangle-491" fill="#222222" sketch:type="MSShapeGroup" x="141" y="48" width="5.53846154" height="6"/>
    <rect id="Rectangle-490" fill="#222222" sketch:type="MSShapeGroup" x="151" y="48" width="5.53846154" height="6"/>
    <rect id="Rectangle-489" fill="#222222" sketch:type="MSShapeGroup" x="161" y="48" width="5.53846154" height="6"/>
    <rect id="Rectangle-488" fill="#222222" sketch:type="MSShapeGroup" x="171" y="48" width="5.53846154" height="6"/>
    <rect id="Rectangle-487" fill="#222222" sketch:type="MSShapeGroup" x="181" y="48" width="5.53846154" height="6"/>
    <rect id="Rectangle-486" fill="#222222" sketch:type="MSShapeGroup" x="191" y="48" width="5.53846154" height="6"/>
    <rect id="Rectangle-485" fill="#222222" sketch:type="MSShapeGroup" x="201" y="48" width="5.53846154" height="6"/>
    <rect id="Rectangle-484" fill="#222222" sketch:type="MSShapeGroup" x="211" y="48" width="5.53846154" height="6"/>
    <rect id="Rectangle-483" fill="#222222" sketch:type="MSShapeGroup" x="221" y="48" width="5.53846154" height="6"/>
    <rect id="Rectangle-473" stroke="#222222" fill="#FFE6C1" sketch:type="MSShapeGroup" x="135" y="54" width="99" height="3"/>
    <rect id="Rectangle-588" stroke="#222222" fill="#F7C57C" sketch:type="MSShapeGroup" x="417.961538" y="48.5" width="11.0384615" height="56.5"/>
    <rect id="Rectangle-608" fill="#222222" sketch:type="MSShapeGroup" x="420.711538" y="48.5" width="5.53846154" height="56.5"/>
    <rect id="Rectangle-603" fill="#222222" sketch:type="MSShapeGroup" x="444.230769" y="50.5957031" width="5.53846154" height="12.4042969"/>
    <rect id="Rectangle-602" fill="#222222" sketch:type="MSShapeGroup" x="434.230769" y="68.5957031" width="5.53846154" height="12.4042969"/>
    <rect id="Rectangle-601" fill="#222222" sketch:type="MSShapeGroup" x="444.230769" y="68.5957031" width="5.53846154" height="12.4042969"/>
    <rect id="Rectangle-600" fill="#222222" sketch:type="MSShapeGroup" x="434.230769" y="88.5957031" width="5.53846154" height="12.4042969"/>
    <rect id="Rectangle-599" fill="#222222" sketch:type="MSShapeGroup" x="444.230769" y="88.5957031" width="5.53846154" height="12.4042969"/>
    <rect id="Rectangle-633" fill="#222222" sketch:type="MSShapeGroup" x="453.230769" y="30.4042969" width="5.53846154" height="11"/>
    <rect id="Rectangle-632" fill="#222222" sketch:type="MSShapeGroup" x="453.230769" y="50.5957031" width="5.53846154" height="12.4042969"/>
    <rect id="Rectangle-631" fill="#222222" sketch:type="MSShapeGroup" x="453.230769" y="68.5957031" width="5.53846154" height="12.4042969"/>
    <rect id="Rectangle-630" fill="#222222" sketch:type="MSShapeGroup" x="453.230769" y="88.5957031" width="5.53846154" height="12.4042969"/>
    <rect id="Rectangle-560" fill="#222222" sketch:type="MSShapeGroup" x="281" y="91" width="5.53846154" height="12.4042969"/>
    <rect id="Rectangle-559" fill="#222222" sketch:type="MSShapeGroup" x="297" y="91" width="5.53846154" height="12.4042969"/>
    <rect id="Rectangle-558" fill="#222222" sketch:type="MSShapeGroup" x="313" y="91" width="5.53846154" height="12.4042969"/>
    <rect id="Rectangle-557" fill="#222222" sketch:type="MSShapeGroup" x="329" y="91" width="5.53846154" height="12.4042969"/>
    <rect id="Rectangle-556" fill="#222222" sketch:type="MSShapeGroup" x="345" y="91" width="5.53846154" height="12.4042969"/>
    <rect id="Rectangle-565" fill="#222222" sketch:type="MSShapeGroup" x="281" y="108" width="5.53846154" height="12.4042969"/>
    <rect id="Rectangle-564" fill="#222222" sketch:type="MSShapeGroup" x="297" y="108" width="5.53846154" height="12.4042969"/>
    <rect id="Rectangle-563" fill="#222222" sketch:type="MSShapeGroup" x="313" y="108" width="5.53846154" height="12.4042969"/>
    <rect id="Rectangle-562" fill="#222222" sketch:type="MSShapeGroup" x="329" y="108" width="5.53846154" height="12.4042969"/>
    <rect id="Rectangle-561" fill="#222222" sketch:type="MSShapeGroup" x="345" y="108" width="5.53846154" height="12.4042969"/>
    <path d="M41,37 L31,48 L133.935547,48 L133.935547,37 L41,37 Z" id="Rectangle-470" stroke="#222222" stroke-width="3" fill="#EA9D2B" sketch:type="MSShapeGroup"/>
    <path d="M144,37 L134,48 L236.935547,48 L236.935547,37 L144,37 Z" id="Rectangle-471" stroke="#222222" stroke-width="3" fill="#EA9D2B" sketch:type="MSShapeGroup" transform="translate(185.500000, 42.500000) scale(-1, 1) translate(-185.500000, -42.500000) "/>
    <rect id="Rectangle-566" stroke="#000000" stroke-width="2" sketch:type="MSShapeGroup" x="279.230769" y="89" width="9.07692308" height="2"/>
    <rect id="Rectangle-567" stroke="#000000" stroke-width="2" sketch:type="MSShapeGroup" x="295.230769" y="89" width="9.07692308" height="2"/>
    <rect id="Rectangle-568" stroke="#000000" stroke-width="2" sketch:type="MSShapeGroup" x="311.230769" y="89" width="9.07692308" height="2"/>
    <rect id="Rectangle-569" stroke="#000000" stroke-width="2" sketch:type="MSShapeGroup" x="327.230769" y="89" width="9.07692308" height="2"/>
    <rect id="Rectangle-582" stroke="#222222" fill="#F7C57C" sketch:type="MSShapeGroup" x="368.461538" y="41" width="89.5384615" height="5"/>
    <rect id="Rectangle-587" stroke="#000000" stroke-width="2" sketch:type="MSShapeGroup" x="420.711538" y="29" width="5.53846154" height="17"/>
    <rect id="Rectangle-584" stroke="#000000" stroke-width="2" sketch:type="MSShapeGroup" x="389" y="22.6035156" width="12" height="7.39648438"/>
    <rect id="Rectangle-585" stroke="#000000" stroke-width="2" sketch:type="MSShapeGroup" x="446.804688" y="22.6035156" width="10.1953125" height="7.39648437"/>
    <rect id="Rectangle-629" stroke="#000000" stroke-width="2" sketch:type="MSShapeGroup" x="389" y="11.6035156" width="12" height="7.39648438"/>
    <rect id="Rectangle-628" stroke="#000000" stroke-width="2" sketch:type="MSShapeGroup" x="446.804688" y="11.6035156" width="10.1953125" height="7.39648437"/>
    <rect id="Rectangle-586" stroke="#000000" stroke-width="2" sketch:type="MSShapeGroup" x="413" y="23" width="21" height="7"/>
    <rect id="Rectangle-570" stroke="#000000" stroke-width="2" sketch:type="MSShapeGroup" x="343.230769" y="89" width="9.07692308" height="2"/>
    <rect id="Rectangle-575" stroke="#000000" stroke-width="2" sketch:type="MSShapeGroup" x="279.230769" y="106" width="9.07692308" height="2"/>
    <rect id="Rectangle-574" stroke="#000000" stroke-width="2" sketch:type="MSShapeGroup" x="295.230769" y="106" width="9.07692308" height="2"/>
    <rect id="Rectangle-573" stroke="#000000" stroke-width="2" sketch:type="MSShapeGroup" x="311.230769" y="106" width="9.07692308" height="2"/>
    <rect id="Rectangle-572" stroke="#000000" stroke-width="2" sketch:type="MSShapeGroup" x="327.230769" y="106" width="9.07692308" height="2"/>
    <rect id="Rectangle-571" stroke="#000000" stroke-width="2" sketch:type="MSShapeGroup" x="343.230769" y="106" width="9.07692308" height="2"/>
    <rect id="Rectangle-580" stroke="#000000" stroke-width="2" sketch:type="MSShapeGroup" x="279.230769" y="72" width="9.07692308" height="2"/>
    <rect id="Rectangle-579" stroke="#000000" stroke-width="2" sketch:type="MSShapeGroup" x="295.230769" y="72" width="9.07692308" height="2"/>
    <rect id="Rectangle-578" stroke="#000000" stroke-width="2" sketch:type="MSShapeGroup" x="311.230769" y="72" width="9.07692308" height="2"/>
    <rect id="Rectangle-577" stroke="#000000" stroke-width="2" sketch:type="MSShapeGroup" x="327.230769" y="72" width="9.07692308" height="2"/>
    <rect id="Rectangle-576" stroke="#000000" stroke-width="2" sketch:type="MSShapeGroup" x="343.230769" y="72" width="9.07692308" height="2"/>
    <rect id="Rectangle-589" stroke="#000000" stroke-width="2" sketch:type="MSShapeGroup" x="369" y="105" width="88.9615385" height="33"/>
  </g>
</svg>
